<svg width="13" height="13" viewBox="0 0 13 13" fill="none" xmlns="http://www.w3.org/2000/svg">
<path d="M6.5 0C5.21442 0 3.95772 0.381218 2.8888 1.09545C1.81988 1.80968 0.986756 2.82484 0.494786 4.01256C0.00281632 5.20028 -0.125905 6.50721 0.124899 7.76809C0.375703 9.02896 0.994768 10.1872 1.90381 11.0962C2.81285 12.0052 3.97104 12.6243 5.23192 12.8751C6.49279 13.1259 7.79973 12.9972 8.98744 12.5052C10.1752 12.0132 11.1903 11.1801 11.9046 10.1112C12.6188 9.04229 13 7.78558 13 6.5C12.9967 4.77711 12.3108 3.12573 11.0925 1.90746C9.87428 0.689184 8.22289 0.00330373 6.5 0ZM9.59375 5.3625L5.93125 8.8625C5.83657 8.95157 5.71125 9.0008 5.58125 9C5.51771 9.00091 5.45463 8.98923 5.39563 8.96563C5.33663 8.94203 5.28289 8.90698 5.2375 8.8625L3.40625 7.1125C3.35546 7.06819 3.31415 7.01406 3.28481 6.95337C3.25547 6.89269 3.23871 6.8267 3.23552 6.75937C3.23233 6.69204 3.2428 6.62476 3.26628 6.56157C3.28975 6.49839 3.32577 6.4406 3.37215 6.39169C3.41853 6.34278 3.47432 6.30375 3.53617 6.27695C3.59802 6.25015 3.66465 6.23614 3.73206 6.23575C3.79946 6.23535 3.86625 6.2486 3.92841 6.27467C3.99056 6.30075 4.04681 6.33913 4.09375 6.3875L5.58125 7.80625L8.90625 4.6375C9.00347 4.55268 9.12972 4.50872 9.25859 4.51482C9.38747 4.52092 9.509 4.5766 9.59777 4.67022C9.68655 4.76384 9.7357 4.88815 9.73495 5.01717C9.7342 5.14618 9.68361 5.26992 9.59375 5.3625Z" fill="#16A34A"/>
</svg>
