<svg width="38" height="39" viewBox="0 0 38 39" fill="none" xmlns="http://www.w3.org/2000/svg">
<path d="M22.0179 32.2411H28.2912C28.3664 31.9063 28.4041 31.5523 28.4041 31.1887V29.2179H24.9899C24.1717 29.2179 23.4757 29.5145 22.8925 30.1076C22.3094 30.7008 22.0179 31.4183 22.0179 32.2411ZM9.02911 12.973V7.21359C9.02911 6.85004 9.06673 6.49606 9.14197 6.16121C9.31127 5.41497 9.68748 4.73571 10.2424 4.14255C11.0513 3.28151 12.0482 2.86056 13.2145 2.86056C13.2991 2.86056 13.3744 2.86056 13.459 2.86056C14.5218 2.91796 15.4247 3.33892 16.1772 4.14255C16.986 5.00359 17.3904 6.0177 17.3904 7.20402V13.767C17.3904 13.8627 17.3904 13.9488 17.3998 14.0349C17.4563 14.7525 17.7384 15.3743 18.2651 15.9005C18.8483 16.4937 19.5443 16.7902 20.3625 16.7902V7.20402C20.3625 6.0177 20.7669 4.99402 21.5852 4.14255C22.3941 3.28151 23.391 2.86056 24.5573 2.86056C24.5761 2.86056 24.5855 2.86056 24.6043 2.86056C25.7518 2.87013 26.7299 3.30065 27.52 4.14255C27.9902 4.64961 28.3288 5.2045 28.5263 5.82636H31.5737C31.3197 4.41043 30.6707 3.16671 29.6079 2.10476C28.2254 0.707965 26.5512 0.00956709 24.6043 0C24.5855 0 24.5761 0 24.5573 0C23.4569 0 22.4129 0.248745 21.4159 0.7558C20.4095 1.26286 19.5725 1.95169 18.9047 2.82229C18.2087 1.93255 17.3622 1.24372 16.3747 0.746233C15.4529 0.287013 14.4842 0.0382685 13.4684 0.0095672C13.3838 0.0095672 13.3085 0.0095672 13.2239 0.0095672C11.2676 0.0095672 9.58402 0.707965 8.17322 2.12389C7.00696 3.29108 6.32038 4.65917 6.12286 6.22818C6.08524 6.55346 6.05703 6.87874 6.05703 7.22316V16.0057C6.88469 16.0057 7.58069 15.7092 8.16382 15.1256C8.73754 14.5324 9.02911 13.8244 9.02911 12.9825M16.5251 17.6896H14.2773V20.6267C14.7946 20.5023 15.2554 20.2344 15.6505 19.823C16.2336 19.2299 16.5251 18.5219 16.5251 17.6896ZM21.2372 20.7128H23.8613V17.7087C23.1935 17.7852 22.6104 18.0722 22.1119 18.5793C21.5288 19.1725 21.2372 19.8804 21.2372 20.7128ZM15.7351 6.16121H9.46175C9.38651 6.49606 9.34889 6.85004 9.34889 7.21359V9.18441H12.763C13.5813 9.18441 14.2773 8.88783 14.8604 8.29467C15.4435 7.70151 15.7351 6.99355 15.7351 6.17078M34.9784 19.2299C35.8531 18.5219 36.5303 17.6704 37.0193 16.6563C37.5084 15.6518 37.753 14.5802 37.753 13.4513C37.753 13.3174 37.753 13.1835 37.7436 13.0495C37.6589 11.2318 36.9723 9.6532 35.6744 8.32337C34.5269 7.13705 33.182 6.43865 31.6395 6.23774C31.3197 6.19948 30.9999 6.17078 30.6613 6.17078H22.0273C22.0273 7.01268 22.3188 7.72064 22.8925 8.3138C23.4663 8.8974 24.1717 9.19398 24.9993 9.19398H30.6613C31.0187 9.19398 31.3667 9.23224 31.6959 9.30878C32.4295 9.48099 33.0973 9.85411 33.6805 10.4281C34.4235 11.1648 34.8373 12.0354 34.9314 13.0399C34.9408 13.1739 34.9502 13.3078 34.9502 13.4418C34.9502 14.6281 34.5269 15.6326 33.6899 16.4554C32.8434 17.2782 31.8464 17.6896 30.6707 17.6896H27.4259V20.7128H30.6707C31.837 20.7128 32.8434 21.1241 33.6899 21.9565C34.5363 22.7792 34.9502 23.7934 34.9502 24.9797C34.9502 25.0275 34.9502 25.0754 34.9502 25.1232C34.9125 26.2521 34.4987 27.2088 33.6899 27.9933C33.1914 28.4812 32.6459 28.8161 32.0345 29.017V32.1167C33.4265 31.8584 34.6492 31.1983 35.6932 30.1172C37.0382 28.73 37.7247 27.0653 37.7624 25.1232C37.7624 25.0754 37.7624 25.0275 37.7624 24.9797C37.7624 23.8699 37.5178 22.7984 37.0193 21.7843C36.5303 20.7606 35.8437 19.9091 34.9878 19.2299M31.7053 9.6245C31.3761 9.54796 31.0282 9.50969 30.6707 9.50969H28.7333V12.9921C28.7333 13.8149 29.0248 14.5324 29.6079 15.1256C30.1911 15.7187 30.8871 16.0153 31.7053 16.0153V9.63406V9.6245ZM28.7333 25.4293V31.1887C28.7333 31.5523 28.6956 31.9063 28.6204 32.2411C28.4511 32.9873 28.0843 33.6666 27.52 34.2502C26.7675 35.0443 25.8552 35.4748 24.7924 35.5322C24.7078 35.5322 24.6325 35.5322 24.5479 35.5322C23.3816 35.5322 22.3941 35.1017 21.5852 34.2502C20.7764 33.3892 20.3719 32.375 20.3719 31.1887V24.6161C20.3719 24.5492 20.3719 24.4918 20.3719 24.4344C20.3343 23.6881 20.0427 23.0376 19.5066 22.4827C18.9235 21.8895 18.2275 21.5929 17.4092 21.5929V31.1792C17.4092 32.3655 17.0048 33.3892 16.1866 34.2406C15.3777 35.0921 14.3901 35.5226 13.2333 35.5226H13.2145C12.0482 35.5226 11.0607 35.0921 10.2518 34.2406C9.76272 33.724 9.42413 33.1595 9.23602 32.5281H6.1887C6.43324 33.9536 7.09161 35.2069 8.16382 36.288C9.56521 37.6848 11.2394 38.3927 13.2145 38.3927H13.2333C14.3243 38.3927 15.3683 38.1344 16.3653 37.6369C17.3622 37.1299 18.2087 36.4411 18.8765 35.5705C19.5725 36.4602 20.4095 37.149 21.4065 37.6465C22.3941 38.144 23.4475 38.3927 24.5573 38.3927C24.6419 38.3927 24.7172 38.3927 24.8018 38.3927C26.6547 38.3353 28.2536 37.6369 29.5985 36.288C30.7648 35.1208 31.4514 33.7527 31.6489 32.1837C31.6865 31.8584 31.7147 31.5331 31.7147 31.1887V22.4061C30.8871 22.4061 30.1911 22.7027 29.6079 23.2863C29.0342 23.8795 28.7427 24.5874 28.7427 25.4293M6.07584 28.7874C6.40502 28.8639 6.75302 28.9022 7.11042 28.9022H9.04792V25.4198C9.04792 24.5874 8.75635 23.8795 8.17322 23.2863C7.59009 22.6931 6.8941 22.3966 6.07584 22.3966V28.7778V28.7874ZM15.7539 32.2411C15.7539 31.3992 15.4623 30.6912 14.8886 30.0981C14.3055 29.5145 13.6095 29.2179 12.7818 29.2179H7.11983C6.76243 29.2179 6.41443 29.1796 6.08524 29.1031C5.35163 28.9213 4.68385 28.5482 4.11013 27.9837C3.26365 27.161 2.84981 26.1469 2.84981 24.9605C2.84981 24.9318 2.84981 24.9031 2.84981 24.8744C2.86862 23.7168 3.29186 22.741 4.11013 21.9469C4.9472 21.1241 5.95357 20.7128 7.11983 20.7128H10.6844V17.6896H7.11983C5.95357 17.6896 4.9472 17.2782 4.11013 16.4554C3.26365 15.6231 2.84981 14.6185 2.84981 13.4322V13.4131C2.84981 12.2363 3.27305 11.2318 4.11013 10.4186C4.69325 9.84454 5.04125 9.48099 5.77487 9.29921V7.21359C5.77487 6.87874 5.79368 6.54389 5.8407 6.21861C4.28883 6.41952 3.25424 7.10835 2.10679 8.2851C0.695994 9.7106 0 11.4135 0 13.4131V13.4322C0 14.5515 0.244538 15.6135 0.74302 16.6276C1.2415 17.6513 1.91869 18.5028 2.77457 19.182C1.89987 19.89 1.22269 20.751 0.733615 21.7556C0.253944 22.7314 0.0188106 23.7647 0 24.8649C0 24.884 0 24.9223 0 24.951C0 26.9409 0.695994 28.6534 2.07858 30.0885C3.22602 31.2748 4.57099 31.9732 6.11346 32.1741C6.43324 32.2124 6.75302 32.2411 7.09161 32.2411H15.7257H15.7539Z" fill="white"/>
<path d="M17.0916 14.0449C17.0916 13.9588 17.0822 11.0312 17.0822 11.0312H10.9688V27.4388H17.0728V24.4252H13.922V14.0353H17.0822L17.0916 14.0449ZM20.675 11.0312V14.0449H24.1456V24.4347H20.6656V27.4484H27.0989V11.0312H20.6656H20.675Z" fill="white"/>
</svg>
