<svg width="94" height="120" viewBox="0 0 94 120" fill="none" xmlns="http://www.w3.org/2000/svg">
<g clip-path="url(#clip0_15995_41151)">
<path d="M74.1265 75.6286C72.9697 74.4915 71.5892 73.9229 69.985 73.9229C68.3808 73.9229 66.9948 74.4915 65.838 75.6286C64.6812 76.7658 64.0974 78.1381 64.0974 79.7509V83.2336H61.8656C62.1712 82.5283 62.3295 81.7629 62.3295 80.9264V75.9348C61.6583 75.9348 61.0908 76.1754 60.6106 76.651C60.1305 77.1321 59.8958 77.7062 59.8958 78.3732V80.9264C59.8958 81.8831 59.563 82.7142 58.8973 83.403C58.237 84.0974 57.4295 84.4418 56.4691 84.4418C55.5088 84.4418 54.7012 84.0974 54.0355 83.403C53.3643 82.7087 53.0315 81.8831 53.0315 80.9264V71.572C53.0315 70.894 52.7969 70.32 52.3221 69.8389C51.8474 69.3687 51.2745 69.1281 50.5924 69.1281V80.9209C50.5924 82.5283 51.1763 83.906 52.3276 85.0432C53.4844 86.1804 54.8649 86.749 56.4691 86.749C57.8278 86.749 59.0228 86.3444 60.0486 85.5407H69.9905C71.5947 85.5407 72.9752 84.9776 74.132 83.8459C75.2888 82.7196 75.8671 81.3474 75.8671 79.74C75.8671 78.1326 75.2942 76.7604 74.132 75.6177M72.435 82.2002C71.7693 82.8836 70.9563 83.2226 70.0014 83.2226H66.5692V79.74C66.5692 78.7778 66.902 77.9522 67.5623 77.2579C68.228 76.5635 69.041 76.2191 69.9959 76.2191C70.9508 76.2191 71.7638 76.5635 72.4295 77.2579C73.0898 77.9522 73.4226 78.7778 73.4226 79.74C73.4226 80.7022 73.0898 81.5168 72.4295 82.2002M47.4385 75.6177C46.2817 74.4805 44.9012 73.9119 43.297 73.9119C41.6928 73.9119 40.3068 74.4805 39.15 75.6177C37.9878 76.7549 37.4094 78.1272 37.4094 79.74V83.2226H34.2282C35.014 82.2221 35.4123 81.0631 35.4123 79.74C35.4123 78.1326 34.8339 76.7604 33.6771 75.6177C32.5203 74.4805 31.1398 73.9119 29.5356 73.9119C27.9314 73.9119 26.5454 74.4805 25.3886 75.6177C24.2264 76.7549 23.648 78.1272 23.648 79.74V83.2226C23.648 83.2226 23.648 85.5352 21.3398 85.5352H43.3025C44.9067 85.5352 46.2872 84.9721 47.444 83.8404C48.6008 82.7142 49.1792 81.3419 49.1792 79.7345C49.1792 78.1272 48.6008 76.7549 47.444 75.6122M26.1143 83.2171V79.7345C26.1143 78.7723 26.4472 77.9467 27.1129 77.2524C27.7786 76.5581 28.5861 76.2136 29.5465 76.2136C30.5068 76.2136 31.3144 76.5581 31.9801 77.2524C32.6458 77.9467 32.9787 78.7723 32.9787 79.7345C32.9787 80.6968 32.6458 81.5114 31.9801 82.1948C31.3144 82.8782 30.5068 83.2171 29.5465 83.2171H26.1143ZM45.7415 82.1948C45.0758 82.8782 44.2683 83.2171 43.3079 83.2171H39.8757V79.7345C39.8757 78.7723 40.2086 77.9467 40.8743 77.2524C41.5345 76.5581 42.3476 76.2136 43.3079 76.2136C44.2683 76.2136 45.0758 76.5581 45.7415 77.2524C46.4072 77.9467 46.7401 78.7723 46.7401 79.7345C46.7401 80.6968 46.4072 81.5114 45.7415 82.1948ZM39.8485 71.561V73.1028C39.8485 73.7807 39.6138 74.3548 39.1391 74.8359C38.6644 75.3116 38.086 75.5466 37.4094 75.5466V69.1172C38.086 69.1172 38.6644 69.3577 39.1391 69.8279C39.6138 70.3036 39.8485 70.8776 39.8485 71.561ZM29.1154 71.9656C29.1154 72.6709 28.5425 73.2395 27.8441 73.2395C27.1456 73.2395 26.5727 72.6709 26.5727 71.9656C26.5727 71.2603 27.1456 70.6917 27.8441 70.6917C28.5425 70.6917 29.1154 71.2603 29.1154 71.9656ZM32.4821 71.9656C32.4821 72.6709 31.9146 73.2395 31.2107 73.2395C30.5068 73.2395 29.9394 72.6709 29.9394 71.9656C29.9394 71.2603 30.5068 70.6917 31.2107 70.6917C31.9146 70.6917 32.4821 71.2603 32.4821 71.9656ZM60.376 71.9656C60.376 72.6709 59.8085 73.2395 59.1046 73.2395C58.4007 73.2395 57.8333 72.6709 57.8333 71.9656C57.8333 71.2603 58.4007 70.6917 59.1046 70.6917C59.8085 70.6917 60.376 71.2603 60.376 71.9656Z" fill="black"/>
<path d="M19.4067 81.25H16.1218C16.1218 81.25 15.9472 85.5472 21.0054 85.5472H24.2903C19.1448 85.5472 19.4067 81.25 19.4067 81.25Z" fill="black"/>
<path d="M33.9445 107.834C34.1955 107.834 34.3755 107.642 34.3755 107.407C34.3755 107.156 34.19 106.975 33.9445 106.975C33.7098 106.975 33.5188 107.167 33.5188 107.402C33.5188 107.659 33.7098 107.839 33.9445 107.839M38.4679 107.839C38.7135 107.839 38.899 107.648 38.899 107.413C38.899 107.161 38.7026 106.981 38.4679 106.981C38.2333 106.981 38.0369 107.172 38.0369 107.407C38.0369 107.664 38.2333 107.845 38.4679 107.845M16.4617 107.675C16.7127 107.675 16.8873 107.468 16.8873 107.249C16.8873 106.986 16.6963 106.801 16.4617 106.801C16.2107 106.801 16.0306 107.008 16.0306 107.232C16.0306 107.484 16.2107 107.675 16.4617 107.675ZM37.333 107.845C37.5785 107.845 37.775 107.653 37.775 107.418C37.775 107.167 37.5676 106.986 37.333 106.986C37.0983 106.986 36.9019 107.178 36.9019 107.413C36.9019 107.67 37.1038 107.85 37.333 107.85M35.0849 107.85C35.3304 107.85 35.5159 107.659 35.5159 107.424C35.5159 107.172 35.3304 106.992 35.0849 106.992C34.8393 106.992 34.6593 107.183 34.6593 107.418C34.6593 107.675 34.8502 107.856 35.0849 107.856M11.1033 107.856C11.3543 107.856 11.5399 107.664 11.5399 107.429C11.5399 107.178 11.338 106.997 11.1033 106.997C10.8687 106.997 10.6723 107.189 10.6723 107.424C10.6723 107.681 10.8687 107.861 11.1033 107.861M48.8954 107.861C49.13 107.861 49.321 107.67 49.321 107.435C49.321 107.183 49.13 107.003 48.8954 107.003C48.6499 107.003 48.4643 107.194 48.4643 107.429C48.4643 107.686 48.6499 107.867 48.8954 107.867M85.6998 107.867C85.9508 107.867 86.1364 107.675 86.1364 107.44C86.1364 107.189 85.929 107.008 85.6998 107.008C85.4707 107.008 85.2633 107.2 85.2633 107.435C85.2633 107.692 85.4707 107.872 85.6998 107.872M86.3983 107.435C86.3983 107.692 86.6056 107.872 86.8294 107.872C87.0804 107.872 87.2659 107.681 87.2659 107.446C87.2659 107.194 87.064 107.014 86.8294 107.014C86.5947 107.014 86.3983 107.205 86.3983 107.44M74.3338 107.703C74.5794 107.703 74.7595 107.495 74.7595 107.276C74.7595 107.014 74.563 106.828 74.3338 106.828C74.0883 106.828 73.8919 107.036 73.8919 107.26C73.8919 107.511 74.0828 107.703 74.3338 107.703ZM86.2673 106.773C86.5129 106.773 86.6984 106.571 86.6984 106.341C86.6984 106.09 86.5129 105.898 86.2673 105.898C86.0218 105.898 85.8363 106.106 85.8363 106.341C85.8363 106.576 86.0327 106.773 86.2673 106.773ZM50.0358 107.872C50.265 107.872 50.4614 107.681 50.4614 107.446C50.4614 107.194 50.265 107.014 50.0358 107.014C49.7903 107.014 49.5993 107.205 49.5993 107.44C49.5993 107.697 49.7903 107.878 50.0358 107.878M60.6816 107.878C60.9271 107.878 61.1126 107.686 61.1126 107.451C61.1126 107.2 60.9053 107.019 60.6816 107.019C60.4469 107.019 60.2396 107.211 60.2396 107.446C60.2396 107.703 60.4469 107.883 60.6816 107.883M73.1989 107.714C73.4499 107.714 73.6245 107.506 73.6245 107.287C73.6245 107.025 73.4335 106.839 73.1989 106.839C72.9642 106.839 72.7678 107.047 72.7678 107.271C72.7678 107.522 72.9533 107.714 73.1989 107.714ZM17.6021 107.714C17.8531 107.714 18.0277 107.506 18.0277 107.287C18.0277 107.025 17.8313 106.839 17.6021 106.839C17.3565 106.839 17.1656 107.047 17.1656 107.271C17.1656 107.522 17.3565 107.714 17.6021 107.714ZM9.96837 107.883C10.2194 107.883 10.4104 107.692 10.4104 107.457C10.4104 107.205 10.2085 107.025 9.96837 107.025C9.72828 107.025 9.53731 107.216 9.53731 107.451C9.53731 107.708 9.74465 107.889 9.96837 107.889M42.293 108.173V110.715L40.6615 107.889H39.7229L40.4105 108.714L41.731 110.972H40.2468L39.9412 111.612H41.9601C42.2875 111.612 42.544 111.508 42.724 111.295C42.9041 111.098 42.9914 110.852 42.9914 110.557V107.036L42.1238 107.227L42.293 108.178V108.173ZM43.8918 107.971V111.612H44.5956V107.965L44.6775 107.019L43.7881 107.09L43.8918 107.971ZM67.9442 108.124V110.387C67.9442 110.775 67.7696 110.972 67.4258 110.972H66.1163C65.7671 110.972 65.5979 110.786 65.5979 110.409V109.769L65.6852 109.031C65.3469 108.922 65.0086 108.867 64.6539 108.867C63.5735 108.867 62.9187 109.485 62.8805 110.502C62.8696 110.819 62.7114 110.972 62.3895 110.972H61.6856C61.3363 110.972 61.1672 110.786 61.1672 110.409V108.599L60.3269 108.791L60.4688 109.715V110.403C60.4688 110.781 60.2996 110.967 59.9504 110.967H59.1046C58.7608 110.967 58.5917 110.77 58.5917 110.382V107.025L57.7623 107.216L57.8823 108.129V110.546C57.8823 111.207 58.2861 111.601 58.9355 111.601H60.1359C60.4033 111.601 60.6324 111.53 60.818 111.393C60.998 111.535 61.2272 111.601 61.5164 111.601H62.5859C62.7823 111.601 62.9624 111.557 63.1206 111.475C63.328 111.819 63.6335 112.005 64.0319 112.005C64.523 112.005 64.9431 111.798 65.2869 111.382C65.4724 111.53 65.6961 111.601 65.958 111.601H67.6059C68.2552 111.601 68.659 111.202 68.659 110.546V106.981L67.8351 107.183L67.9551 108.124H67.9442ZM64.8886 111.103C64.6812 111.316 64.4575 111.426 64.201 111.426C63.8627 111.426 63.6063 111.076 63.6063 110.469C63.6063 109.725 63.9009 109.354 64.4957 109.354C64.6157 109.354 64.7249 109.37 64.834 109.403L64.8886 109.802V111.103ZM69.5485 107.965V111.606H70.2523V107.96L70.3287 107.014L69.4393 107.085L69.543 107.965H69.5485ZM87.686 108.785L87.8115 109.709V110.409C87.8115 110.786 87.6424 110.972 87.3095 110.972C87.0803 110.972 86.873 110.885 86.6984 110.704V108.867L86.0054 109.02V110.403C86.0054 110.781 85.8308 110.967 85.4979 110.967C85.2524 110.967 85.0451 110.879 84.8704 110.715V108.867L84.172 109.02L84.1611 110.392C84.1611 110.77 83.9919 110.956 83.6482 110.956H82.797C82.4532 110.956 82.2786 110.759 82.2786 110.365V108.588L81.4328 108.78L81.5747 109.731L81.5856 111.519C81.5856 112.229 81.2582 112.683 80.598 112.891L80.7508 113.17C81.6838 112.913 82.1858 112.377 82.2731 111.546C82.3823 111.579 82.5023 111.59 82.6278 111.59H83.8173C84.1393 111.59 84.3903 111.497 84.5812 111.322C84.6304 111.273 84.6795 111.218 84.7177 111.163C84.9959 111.448 85.3124 111.584 85.6835 111.584C86.0545 111.584 86.3492 111.453 86.5402 111.18C86.8021 111.453 87.124 111.584 87.5005 111.584C88.128 111.584 88.5318 111.18 88.5318 110.557V108.577L87.6915 108.769L87.686 108.785ZM78.6391 108.495H77.3186L77.9515 107.856L78.961 107.019H77.9515C77.4932 107.577 76.8439 108.271 75.9817 109.108H78.4863C79.2829 109.108 79.6867 109.376 79.6867 109.922V110.961H75.376C75.0323 110.961 74.8577 110.764 74.8577 110.387V108.003C74.5958 108.053 74.312 108.113 74.0065 108.195L74.0501 108.517H73.8209C73.3244 108.517 72.9206 108.654 72.615 108.944C72.3095 109.223 72.1621 109.589 72.1621 110.054C72.1621 110.906 72.6205 111.448 73.3844 111.448C73.7445 111.448 74.0501 111.377 74.3011 111.245C74.5303 111.486 74.8249 111.606 75.2014 111.606H80.3906V109.807C80.3906 108.987 79.7522 108.495 78.6445 108.495M74.1647 110.77C73.9683 110.83 73.7609 110.857 73.5426 110.857C73.1061 110.857 72.8879 110.546 72.8824 109.922C72.8824 109.66 72.9697 109.436 73.1443 109.266C73.3244 109.086 73.5317 108.998 73.7773 108.993C73.8973 108.993 74.0228 108.987 74.1592 108.982V110.77H74.1647ZM56.4855 108.922C56.1635 108.687 55.7597 108.572 55.2632 108.572C54.7994 108.572 54.3356 108.774 53.85 109.179C53.4462 109.501 53.1406 109.857 52.9333 110.239V108.178L53.0096 107.243L52.1257 107.32L52.2294 108.195V110.972H50.5651V108.599H49.5229C49.0155 108.599 48.6226 108.752 48.317 109.042C48.0114 109.337 47.8641 109.742 47.8641 110.245C47.8641 111.109 48.4043 111.612 49.1464 111.612H49.8503C49.8012 112.355 49.4411 112.727 48.7535 112.727C48.2843 112.727 47.9132 112.579 47.6513 112.306C47.3457 111.989 47.193 111.519 47.193 110.895V110.267H46.5V110.917C46.5 112.35 47.2748 113.186 48.6881 113.186C49.261 113.186 49.7193 113.033 50.0413 112.738C50.3523 112.465 50.5269 112.093 50.5597 111.612H56.9656V109.884C56.9656 109.479 56.8019 109.168 56.48 108.933M49.8394 110.972H49.2446C48.7972 110.972 48.5789 110.682 48.5789 110.125C48.5789 109.436 48.879 109.086 49.4738 109.086H49.8448V110.972H49.8394ZM56.2454 110.972H52.9442C53.0478 110.666 53.3152 110.316 53.7408 109.911C54.2428 109.425 54.6957 109.184 55.105 109.184C55.8634 109.184 56.2454 109.458 56.2454 109.993V110.967V110.972ZM14.6392 110.048L14.5246 109.797C14.2627 109.868 14.039 110.004 13.8644 110.212C13.6897 110.42 13.597 110.639 13.5915 110.874C13.5588 111.327 13.7989 111.612 14.1317 111.612C14.4264 111.612 14.5792 111.464 14.5792 111.169C14.5792 110.874 14.4318 110.726 14.1263 110.715C14.099 110.671 14.099 110.628 14.099 110.578C14.099 110.332 14.3609 110.108 14.6392 110.054M10.5522 108.364C10.263 108.364 10.012 108.441 9.79922 108.588C9.50457 108.796 9.35724 109.102 9.35724 109.512C9.35724 110.261 9.75557 110.639 10.5522 110.639C10.7487 110.639 10.9069 110.611 11.0215 110.551C10.9724 110.835 10.7159 110.977 10.2412 110.977H8.20045V109.89C8.20045 109.485 8.03675 109.173 7.71482 108.938C7.39288 108.703 6.9891 108.588 6.49255 108.588C6.0342 108.588 5.56494 108.791 5.08476 109.195C4.68098 109.518 4.37541 109.873 4.16806 110.256V108.195L4.24991 107.26L3.36049 107.336L3.47508 108.211V110.988H2.22007C1.87085 110.988 1.7017 110.792 1.7017 110.398V108.621L0.855934 108.812L0.997804 109.764V111.552C0.997804 112.262 0.675868 112.716 0.015625 112.924L0.173865 113.203C1.10148 112.946 1.60894 112.41 1.69079 111.579C1.79446 111.612 1.91996 111.623 2.04546 111.623H10.1921C11.2779 111.623 11.7799 111.103 11.7799 109.824V109.49C11.7799 109.162 11.6817 108.9 11.4853 108.703C11.2616 108.479 10.9506 108.375 10.5631 108.375M7.48564 110.988H4.18443C4.2881 110.682 4.56093 110.332 4.98109 109.928C5.48309 109.441 5.94144 109.201 6.34522 109.201C7.10368 109.201 7.48564 109.474 7.48564 110.01V110.983V110.988ZM11.0815 110.086C10.9342 110.152 10.7487 110.19 10.5359 110.19C10.2303 110.19 10.0775 109.988 10.0775 109.572C10.0775 109.069 10.2467 108.812 10.5904 108.812C10.9342 108.812 11.0979 109.053 11.0979 109.512C11.0979 109.736 11.0979 109.928 11.087 110.092M19.2773 112.344C19.0481 112.344 18.8407 112.541 18.8407 112.771C18.8407 113.028 19.0481 113.208 19.2773 113.208C19.5228 113.208 19.7192 113 19.7192 112.782C19.7192 112.53 19.5119 112.344 19.2773 112.344ZM20.3413 109.725V110.431C20.3413 110.808 20.1721 110.994 19.8229 110.994H18.6552C18.306 110.994 18.1368 110.797 18.1368 110.42V108.036C17.8749 108.085 17.5857 108.145 17.2856 108.227L17.3238 108.55H17.1001C16.5981 108.55 16.1943 108.687 15.8942 108.976C15.5886 109.255 15.4358 109.622 15.4358 110.086C15.4358 110.939 15.8996 111.48 16.6581 111.48C17.0237 111.48 17.3238 111.409 17.5748 111.278C17.804 111.519 18.0986 111.639 18.4751 111.639H19.9866C20.6305 111.639 21.0343 111.24 21.0343 110.611V108.643L20.2103 108.823L20.3358 109.736L20.3413 109.725ZM17.4438 110.797C17.2474 110.857 17.0401 110.885 16.8218 110.885C16.3907 110.885 16.167 110.573 16.1616 109.95C16.1616 109.687 16.2489 109.463 16.4235 109.294C16.5981 109.113 16.8163 109.026 17.0564 109.02C17.1765 109.02 17.3074 109.015 17.4438 109.009V110.797ZM24.5155 110.218C24.5046 109.758 24.3737 109.381 24.1118 109.08C23.8444 108.774 23.5006 108.621 23.0641 108.621C22.9441 108.643 22.8677 108.648 22.8458 108.648C22.8677 108.84 22.8786 108.976 22.8786 109.048C22.955 109.009 23.0368 108.998 23.0968 108.998C23.3042 108.998 23.4679 109.091 23.5934 109.272C23.7298 109.474 23.8007 109.747 23.8007 110.097V110.846L23.7789 110.994H21.9837L21.7982 111.634H24.6138L24.5101 110.988V110.223L24.5155 110.218ZM37.9332 108.381C37.644 108.381 37.393 108.457 37.1802 108.605C36.891 108.812 36.7437 109.119 36.7437 109.529C36.7437 110.278 37.142 110.655 37.9387 110.655C38.1405 110.655 38.2933 110.628 38.4079 110.567C38.3588 110.852 38.1023 110.994 37.6276 110.994H35.887C35.5487 110.994 35.3795 110.808 35.3795 110.431V108.621L34.5338 108.812L34.6811 109.736V110.425C34.6811 110.803 34.5065 110.988 34.1518 110.988H33.0605V109.95C33.0605 109.545 32.9023 109.233 32.5803 109.009C32.2638 108.774 31.8491 108.659 31.3471 108.659C30.4304 108.659 29.5901 109.261 28.8208 110.458V108.9L28.1223 109.053L28.1059 110.425C28.1059 110.803 27.9313 110.988 27.593 110.988H26.7582C26.4144 110.988 26.2453 110.792 26.2453 110.403V107.047L25.4104 107.238L25.5305 108.151V110.567C25.5305 111.229 25.9342 111.623 26.5836 111.623H34.3428C34.6047 111.623 34.8339 111.552 35.0249 111.415C35.2049 111.557 35.4341 111.623 35.7178 111.623H37.5621C38.6535 111.623 39.1555 111.103 39.1555 109.824V109.49C39.1555 109.162 39.0572 108.9 38.8554 108.703C38.6316 108.479 38.3206 108.375 37.9332 108.375M32.3457 110.988H29.1372C29.2464 110.688 29.4865 110.354 29.8466 109.977C30.3049 109.496 30.7578 109.25 31.1834 109.25C31.9528 109.25 32.3511 109.523 32.3511 110.059V110.983L32.3457 110.988ZM38.4516 110.086C38.2988 110.152 38.1187 110.19 37.9059 110.19C37.5949 110.19 37.4421 109.988 37.4421 109.572C37.4421 109.069 37.6167 108.812 37.955 108.812C38.2933 108.812 38.457 109.053 38.457 109.512C38.457 109.736 38.457 109.928 38.457 110.092M20.4122 112.344C20.1776 112.344 19.9702 112.541 19.9702 112.771C19.9702 113.028 20.1776 113.208 20.4122 113.208C20.6578 113.208 20.8433 113 20.8433 112.782C20.8433 112.53 20.6359 112.344 20.4122 112.344Z" fill="black"/>
<path d="M0.769531 115.695H2.83756V116.083H1.26062V117.204H2.75026V117.592H1.26062V118.872H2.9085V119.265H0.769531V115.695Z" fill="black"/>
<path d="M6.26783 118.034C6.22417 118.706 5.92406 119.329 5.05102 119.329C3.90514 119.329 3.75781 118.373 3.75781 117.471C3.75781 116.568 3.94334 115.617 5.05102 115.617C5.8695 115.617 6.21326 116.027 6.23509 116.727H5.71671C5.7058 116.322 5.55847 115.978 5.05102 115.978C4.36349 115.978 4.27618 116.645 4.27618 117.471C4.27618 118.296 4.36895 118.963 5.05102 118.963C5.64578 118.963 5.73308 118.466 5.74945 118.028H6.26783V118.034Z" fill="black"/>
<path d="M9.7075 117.478C9.7075 118.375 9.52198 119.332 8.4143 119.332C7.30662 119.332 7.12109 118.375 7.12109 117.478C7.12109 116.582 7.30662 115.625 8.4143 115.625C9.52198 115.625 9.7075 116.576 9.7075 117.478ZM7.63947 117.478C7.63947 118.304 7.73223 118.971 8.4143 118.971C9.09636 118.971 9.18913 118.304 9.18913 117.478C9.18913 116.653 9.09636 115.986 8.4143 115.986C7.73223 115.986 7.63947 116.653 7.63947 117.478Z" fill="black"/>
<path d="M10.75 115.695H11.3884L12.7144 118.675H12.7253V115.695H13.2218V119.265H12.5397L11.252 116.373H11.2411V119.265H10.75V115.695Z" fill="black"/>
<path d="M16.8442 117.478C16.8442 118.375 16.6532 119.332 15.551 119.332C14.4488 119.332 14.2578 118.375 14.2578 117.478C14.2578 116.582 14.4379 115.625 15.551 115.625C16.6642 115.625 16.8442 116.576 16.8442 117.478ZM14.7762 117.478C14.7762 118.304 14.8635 118.971 15.551 118.971C16.2385 118.971 16.3258 118.304 16.3258 117.478C16.3258 116.653 16.2385 115.986 15.551 115.986C14.8635 115.986 14.7762 116.653 14.7762 117.478Z" fill="black"/>
<path d="M17.8984 115.695H18.7333L19.5354 118.522H19.5463L20.3484 115.695H21.1778V119.265H20.6867V116.144H20.6758L19.7864 119.265H19.2899L18.4059 116.144H18.395V119.265H17.8984V115.695Z" fill="black"/>
<path d="M22.7856 115.695H22.2891V119.265H22.7856V115.695Z" fill="black"/>
<path d="M26.3381 118.034C26.2945 118.706 25.9944 119.329 25.1213 119.329C23.9809 119.329 23.8281 118.373 23.8281 117.471C23.8281 116.568 24.0082 115.617 25.1213 115.617C25.9398 115.617 26.2836 116.027 26.3054 116.727H25.787C25.7761 116.322 25.6288 115.978 25.1213 115.978C24.4338 115.978 24.3465 116.645 24.3465 117.471C24.3465 118.296 24.4393 118.963 25.1213 118.963C25.7215 118.963 25.8034 118.466 25.8198 118.028H26.3381V118.034Z" fill="black"/>
<path d="M28.8438 118.899L30.6444 116.083H28.9474V115.695H31.1628V116.105L29.3621 118.872H31.1846V119.265H28.8438V118.899Z" fill="black"/>
<path d="M34.6177 117.478C34.6177 118.375 34.4321 119.332 33.3245 119.332C32.2168 119.332 32.0312 118.375 32.0312 117.478C32.0312 116.582 32.2168 115.625 33.3245 115.625C34.4321 115.625 34.6177 116.576 34.6177 117.478ZM32.5496 117.478C32.5496 118.304 32.6424 118.971 33.3245 118.971C34.0065 118.971 34.0993 118.304 34.0993 117.478C34.0993 116.653 34.012 115.986 33.3245 115.986C32.6369 115.986 32.5496 116.653 32.5496 117.478Z" fill="black"/>
<path d="M35.6602 115.695H36.2986L37.6245 118.675H37.6354V115.695H38.132V119.265H37.4499L36.1676 116.373H36.1512V119.265H35.6602V115.695Z" fill="black"/>
<path d="M39.2266 115.695H41.3001V116.083H39.7231V117.204H41.2127V117.592H39.7231V118.872H41.3655V119.265H39.2266V115.695Z" fill="black"/>
<path d="M43.9802 116.612C43.9802 116.24 43.8274 115.978 43.3527 115.978C42.9435 115.978 42.6925 116.18 42.6925 116.558C42.6925 117.564 44.5804 116.962 44.5804 118.263C44.5804 119.089 43.9038 119.324 43.3364 119.324C42.3978 119.324 42.125 118.898 42.125 118.132H42.6161C42.6161 118.531 42.6434 118.963 43.3691 118.963C43.762 118.963 44.0675 118.712 44.0675 118.334C44.0675 117.328 42.1741 117.913 42.1741 116.601C42.1741 116.273 42.3324 115.617 43.3473 115.617C44.1166 115.617 44.4604 115.956 44.4713 116.607H43.9802V116.612Z" fill="black"/>
<path d="M49.7795 118.034C49.7359 118.706 49.4412 119.329 48.5627 119.329C47.4223 119.329 47.2695 118.373 47.2695 117.471C47.2695 116.568 47.4551 115.617 48.5627 115.617C49.3812 115.617 49.725 116.027 49.7468 116.727H49.2284C49.2175 116.322 49.0702 115.978 48.5627 115.978C47.8752 115.978 47.7824 116.645 47.7824 117.471C47.7824 118.296 47.8752 118.963 48.5627 118.963C49.163 118.963 49.2503 118.466 49.2666 118.028H49.7795V118.034Z" fill="black"/>
<path d="M53.2177 117.478C53.2177 118.375 53.0321 119.332 51.9299 119.332C50.8277 119.332 50.6367 118.375 50.6367 117.478C50.6367 116.582 50.8222 115.625 51.9299 115.625C53.0376 115.625 53.2177 116.576 53.2177 117.478ZM51.1551 117.478C51.1551 118.304 51.2424 118.971 51.9299 118.971C52.6174 118.971 52.7047 118.304 52.7047 117.478C52.7047 116.653 52.612 115.986 51.9299 115.986C51.2478 115.986 51.1551 116.653 51.1551 117.478Z" fill="black"/>
<path d="M54.2695 115.695H55.1044L55.9065 118.522H55.9174L56.7195 115.695H57.5489V119.265H57.0578V116.144H57.0469L56.1575 119.265H55.6664L54.777 116.144H54.7661V119.265H54.2695V115.695Z" fill="black"/>
<path d="M58.6641 115.695H59.6844C60.0337 115.695 60.9231 115.695 60.9231 116.723C60.9231 117.379 60.4484 117.756 59.7663 117.756H59.1552V119.265H58.6641V115.695ZM59.1552 117.396H59.7445C60.1046 117.396 60.4102 117.177 60.4102 116.701C60.4102 116.313 60.2028 116.056 59.7117 116.056H59.1552V117.396Z" fill="black"/>
<path d="M62.3896 115.695H63.0553L64.1357 119.26H63.6173L63.3336 118.281H62.0513L61.7567 119.26H61.2383L62.3951 115.695H62.3896ZM62.1495 117.926H63.2299L62.717 116.204H62.7061L62.1495 117.926Z" fill="black"/>
<path d="M64.8633 115.695H65.5017L66.8276 118.675H66.8385V115.695H67.3296V119.265H66.653L65.3653 116.373H65.3544V119.265H64.8633V115.695Z" fill="black"/>
<path d="M68.0938 115.695H68.6394L69.4033 117.363L70.1945 115.695H70.7129L69.6489 117.866V119.265H69.1578V117.866L68.0938 115.695Z" fill="black"/>
<path d="M70.9336 118.734H71.452V119.172C71.452 119.554 71.4192 119.888 70.9336 120.003V119.768C71.13 119.686 71.1846 119.587 71.1846 119.385V119.265H70.9336V118.734Z" fill="black"/>
<path d="M75.6331 119.151C75.4585 119.266 75.2293 119.332 74.9401 119.332C73.8324 119.332 73.6523 118.375 73.6523 117.478C73.6523 116.582 73.8379 115.625 74.9401 115.625C76.0423 115.625 76.2278 116.576 76.2278 117.478C76.2278 117.992 76.1678 118.528 75.9059 118.883L76.3097 119.211L76.0314 119.474L75.6276 119.146L75.6331 119.151ZM74.9183 118.577L75.1911 118.309L75.5621 118.605C75.6876 118.337 75.7149 117.932 75.7149 117.478C75.7149 116.653 75.6222 115.98 74.9401 115.98C74.258 115.98 74.1653 116.647 74.1653 117.478C74.1653 118.309 74.2526 118.971 74.9401 118.971C75.0874 118.971 75.2075 118.944 75.3057 118.883L74.9183 118.577Z" fill="black"/>
<path d="M78.063 115.695H78.7287L79.8091 119.26H79.2908L79.007 118.281H77.7247L77.4246 119.26H76.9062L78.063 115.695ZM77.8229 117.926H78.9033L78.3904 116.204H78.3795L77.8229 117.926Z" fill="black"/>
<path d="M81.4459 119.265H80.9548V116.083H79.9453V115.695H82.4553V116.083H81.4459V119.265Z" fill="black"/>
<path d="M83.7545 115.695H84.4202L85.4951 119.26H84.9822L84.693 118.281H83.4161L83.116 119.26H82.5977L83.7545 115.695ZM83.5144 117.926H84.5893L84.0764 116.204H84.0655L83.5144 117.926Z" fill="black"/>
<path d="M86.2188 115.695H87.5174C88.1449 115.695 88.5432 116.023 88.5432 116.592C88.5432 116.98 88.3905 117.39 87.9212 117.489V117.499C88.2704 117.538 88.4723 117.789 88.4941 118.095L88.5269 118.708C88.5487 119.101 88.6196 119.2 88.7397 119.265H88.1449C88.0576 119.194 88.0194 118.926 88.014 118.751L87.9758 118.199C87.9376 117.707 87.632 117.68 87.381 117.68H86.7153V119.271H86.2242V115.706L86.2188 115.695ZM86.7098 117.314H87.2009C87.4956 117.314 88.0249 117.314 88.0249 116.63C88.0249 116.28 87.7575 116.056 87.2992 116.056H86.7098V117.314Z" fill="black"/>
<path d="M75.2014 97.0917C74.8795 97.0917 74.6067 97.201 74.3884 97.4252C74.1756 97.6493 74.0665 97.9227 74.0665 98.2507C74.0665 98.5788 74.181 98.8357 74.3993 99.0489C74.6176 99.2622 74.8849 99.3715 75.2014 99.3715H77.1058C77.7387 99.3715 78.2735 99.1528 78.7209 98.71C79.1683 98.2671 79.392 97.7313 79.392 97.0917H75.2014ZM65.6852 94.6533C65.3687 94.6533 65.1013 94.7626 64.8776 94.9868C64.6539 95.2164 64.5393 95.4843 64.5393 95.8014C64.5393 96.1185 64.6539 96.3864 64.8776 96.6051C65.1013 96.8292 65.3687 96.9386 65.6852 96.9386H66.2036C66.8311 96.9386 67.3658 96.7144 67.8187 96.2661C68.2716 95.8233 68.4953 95.2875 68.4953 94.6588H65.6906L65.6852 94.6533ZM13.1331 93.1006C12.3256 93.5052 11.6435 94.0519 11.0979 94.7517C10.5358 94.0464 9.85376 93.4942 9.05165 93.0951C8.24953 92.7015 7.39831 92.5047 6.50344 92.5047C4.92104 92.5047 3.56236 93.0623 2.41648 94.1886C1.28152 95.3148 0.703125 96.6652 0.703125 98.2562V103.975C1.37428 103.975 1.94176 103.74 2.40557 103.27C2.87483 102.799 3.10946 102.231 3.10946 101.564V98.2562C3.10946 97.3104 3.43686 96.4957 4.0971 95.8069C4.75734 95.1235 5.554 94.779 6.49798 94.779C7.44197 94.779 8.24408 95.1235 8.89341 95.8069C9.54819 96.4903 9.87559 97.3049 9.87559 98.2562V101.564C9.87559 102.225 10.1102 102.794 10.5849 103.264C11.0597 103.734 11.6217 103.975 12.2819 103.975V98.2562C12.2819 97.3104 12.6093 96.4957 13.2696 95.8069C13.9298 95.1235 14.7319 94.779 15.6704 94.779C16.609 94.779 17.4111 95.1235 18.0659 95.8069C18.7207 96.4903 19.048 97.3049 19.048 98.2562V101.564C19.048 102.225 19.2827 102.794 19.7574 103.264C20.2321 103.734 20.7996 103.975 21.4598 103.975V98.2562C21.4598 96.6598 20.8924 95.3039 19.7574 94.1831C18.6279 93.0623 17.2638 92.5047 15.6759 92.5047C14.7865 92.5047 13.9407 92.7015 13.1331 93.1006ZM25.9615 100.684C25.3067 100.011 24.9793 99.202 24.9793 98.2562C24.9793 97.3104 25.3067 96.4957 25.9615 95.8069C26.6163 95.1235 27.4184 94.779 28.3624 94.779C29.3064 94.779 30.1139 95.1235 30.7633 95.8069C31.418 96.4903 31.7454 97.3049 31.7454 98.2562V101.695H28.3624C27.4184 101.695 26.6163 101.362 25.9615 100.689M24.2863 94.194C23.1459 95.3203 22.573 96.6707 22.573 98.2616C22.573 99.8526 23.1459 101.198 24.2863 102.307C25.4213 103.423 26.7854 103.98 28.3733 103.98H34.1791V98.2616C34.1791 96.6707 33.6061 95.3203 32.4603 94.194C31.3198 93.0678 29.9502 92.5101 28.3733 92.5101C26.7964 92.5101 25.4268 93.0678 24.2863 94.194ZM37.3111 94.194C36.1762 95.3203 35.6087 96.6707 35.6087 98.2616V103.98C36.2689 103.98 36.8309 103.74 37.3057 103.27C37.7749 102.799 38.0096 102.231 38.0096 101.569V98.2616C38.0096 97.3158 38.3424 96.5012 38.9972 95.8123C39.652 95.1289 40.4541 94.7845 41.4035 94.7845C42.353 94.7845 43.1333 95.1289 43.7935 95.8178C44.4538 96.5067 44.7811 97.3158 44.7811 98.2562V101.564C44.7811 102.225 45.0212 102.794 45.485 103.264C45.9598 103.734 46.5218 103.975 47.182 103.975V98.2562C47.182 96.6652 46.6145 95.3148 45.4796 94.1886C44.3446 93.0623 42.9859 92.5047 41.4035 92.5047C39.8211 92.5047 38.4461 93.0623 37.3111 94.1886M51.6891 100.684C51.0344 100.011 50.707 99.202 50.707 98.2562C50.707 97.3104 51.0344 96.4957 51.6891 95.8069C52.3439 95.1235 53.146 94.779 54.0955 94.779C55.0449 94.779 55.8416 95.1235 56.4964 95.8069C57.1511 96.4903 57.4785 97.3049 57.4785 98.2562V101.695H54.0955C53.146 101.695 52.3439 101.362 51.6891 100.689M50.014 94.194C48.8681 95.3203 48.3006 96.6707 48.3006 98.2616C48.3006 99.8526 48.8681 101.198 50.014 102.307C51.1544 103.423 52.5131 103.98 54.1009 103.98H59.9122V98.2616C59.9122 96.6707 59.3392 95.3203 58.1933 94.194C57.0475 93.0678 55.6833 92.5101 54.1009 92.5101C52.5185 92.5101 51.1544 93.0678 50.014 94.194ZM76.0035 92.5101C74.4211 92.5101 73.057 93.0678 71.9275 94.194C70.7925 95.3203 70.2305 96.6707 70.2305 98.2616C70.2305 99.8526 70.798 101.198 71.9275 102.307C73.0625 103.423 74.4211 103.98 76.0035 103.98H79.3975C79.3975 103.346 79.1683 102.81 78.7263 102.368C78.2789 101.919 77.7387 101.695 77.1112 101.695H76.009C75.0759 101.695 74.2793 101.356 73.619 100.678C72.9588 100 72.6314 99.1911 72.6314 98.2562C72.6314 97.3213 72.9588 96.5012 73.619 95.8178C74.2793 95.1289 75.0759 94.7845 76.009 94.7845H77.1112C77.7442 94.7845 78.2789 94.5658 78.7263 94.123C79.1738 93.6747 79.3975 93.1389 79.3975 92.5101H76.0035ZM88.5427 95.7686C89.2138 96.4247 89.5467 97.2283 89.5467 98.1796V101.372H89.5412C89.5412 101.438 89.5412 101.509 89.5412 101.575H86.12C85.1705 101.575 84.363 101.247 83.6809 100.591C82.9988 99.9346 82.6551 99.1255 82.6551 98.1796C82.6551 97.2338 82.9988 96.4247 83.6809 95.7686C84.363 95.1125 85.176 94.779 86.12 94.779C87.064 94.779 87.877 95.1125 88.5481 95.7686M82.0658 94.0902C80.9417 95.2273 80.3851 96.5941 80.3851 98.1796C80.3851 99.7651 80.9417 101.132 82.0658 102.269C83.1843 103.412 84.5376 103.986 86.12 103.986H89.6013C89.6013 105.26 89.7922 108.376 91.8275 108.846V101.575V98.1906C91.8275 96.6051 91.271 95.2383 90.1578 94.0902C89.0501 92.9475 87.6969 92.3735 86.1145 92.3735C84.5321 92.3735 83.1734 92.9475 82.0603 94.0902M61.3472 98.2562C61.3472 99.8417 61.9093 101.192 63.0497 102.302C64.1846 103.417 65.5433 103.975 67.1257 103.975H70.5142C70.5142 103.341 70.2905 102.805 69.8431 102.362C69.3902 101.914 68.8554 101.69 68.2279 101.69H67.1257C66.1817 101.69 65.3796 101.356 64.7303 100.684C64.0755 100.011 63.7481 99.202 63.7481 98.2562V92.0618C63.7481 91.4058 63.5135 90.8317 63.0388 90.3615C62.5695 89.8859 62.002 89.6562 61.3472 89.6562V98.2616V98.2562Z" fill="#862634"/>
<path d="M91.8219 108.848C91.8219 108.848 91.7618 108.897 92.5258 108.908C93.1042 108.919 93.999 108.711 93.999 108.711V112.379C93.999 112.379 93.066 112.636 92.1929 110.963C91.8328 110.269 91.8164 108.848 91.8164 108.848" fill="#83764F"/>
<path d="M52.6161 53.114H63.109C63.24 52.5618 63.3055 51.9823 63.3055 51.3809V48.1334H57.587C56.2283 48.1334 55.0551 48.6255 54.0784 49.6041C53.1072 50.5827 52.6161 51.7527 52.6161 53.114ZM30.8826 21.3768V11.8803C30.8826 11.2789 30.9481 10.6993 31.0791 10.1472C31.3683 8.91157 31.9848 7.80719 32.9234 6.83402C34.2821 5.41801 35.9409 4.71274 37.8888 4.71274C38.0307 4.71274 38.1671 4.71274 38.2981 4.72368C40.0769 4.81662 41.5884 5.51642 42.8488 6.83402C44.2021 8.24457 44.8732 9.92847 44.8732 11.8803V22.6999C44.8732 22.8475 44.8787 22.9951 44.895 23.1373C44.9933 24.3182 45.468 25.346 46.341 26.2153C47.3178 27.1939 48.4855 27.6805 49.8496 27.6805V11.8803C49.8496 9.92847 50.5262 8.24457 51.8903 6.83402C53.249 5.41801 54.9078 4.71274 56.8558 4.71274H56.9322C58.8529 4.73461 60.479 5.43442 61.8049 6.83402C62.5961 7.65957 63.1581 8.58353 63.4855 9.6059H68.5874C68.1618 7.27687 67.0705 5.22666 65.2916 3.47168C62.9726 1.17545 60.1843 0.0218689 56.9267 0C56.8995 0 56.8776 0 56.8503 0C55.0169 0 53.2599 0.415509 51.5902 1.24106C49.9151 2.07208 48.5127 3.20926 47.3832 4.6526C46.221 3.19286 44.8132 2.05021 43.1599 1.23012C41.6211 0.470181 40.0005 0.0710739 38.2981 0.0164017C38.1617 0.0164017 38.0253 0.00546722 37.8888 0.00546722C34.6204 0.00546722 31.8048 1.16452 29.4476 3.48809C27.4941 5.41255 26.3482 7.67051 26.0154 10.2565C25.9499 10.7868 25.9117 11.3335 25.9117 11.8857V26.3629C27.2922 26.3629 28.4654 25.8763 29.4312 24.9141C30.397 23.941 30.8826 22.771 30.8826 21.3823M43.4163 29.1457H39.6513V33.9788C40.5134 33.771 41.2774 33.3336 41.9485 32.6612C42.9252 31.6825 43.4163 30.5126 43.4163 29.1512M51.2956 34.1319H55.6772V29.184C54.5586 29.3043 53.5873 29.7799 52.7579 30.6164C51.7812 31.5896 51.2956 32.765 51.2956 34.1319ZM42.0904 10.1581H31.5974C31.4719 10.7103 31.4065 11.2898 31.4065 11.8912V15.1333H37.1195C38.4836 15.1333 39.6513 14.6467 40.628 13.668C41.6047 12.6949 42.0904 11.5194 42.0904 10.1581ZM74.2731 31.6661C75.7355 30.5016 76.8759 29.0911 77.6944 27.429C78.5129 25.767 78.9166 24.012 78.9166 22.1532C78.9166 21.929 78.9112 21.7049 78.9003 21.4862C78.7529 18.4901 77.6016 15.8987 75.4463 13.6954C73.5256 11.7381 71.272 10.59 68.6911 10.2565C68.1618 10.1854 67.6161 10.1526 67.0596 10.1526H52.6161C52.6161 11.5358 53.1017 12.7113 54.0675 13.679C55.0333 14.6467 56.2065 15.1278 57.587 15.1278H67.0596C67.6652 15.1278 68.2382 15.1934 68.7947 15.3246C70.0279 15.6144 71.1356 16.2267 72.1069 17.1725C73.351 18.3808 74.0494 19.8132 74.1913 21.4807C74.2076 21.6994 74.224 21.9235 74.224 22.1477C74.224 24.105 73.5201 25.7561 72.1069 27.1119C70.6991 28.4678 69.0185 29.1457 67.065 29.1457H61.6412V34.1264H67.065C69.0185 34.1264 70.6991 34.8043 72.1069 36.1711C73.5201 37.5325 74.224 39.1945 74.224 41.1463C74.224 41.2228 74.2186 41.2994 74.2186 41.3814C74.164 43.2402 73.4601 44.8093 72.1069 46.1105C71.2775 46.9087 70.3553 47.4664 69.3404 47.7944V52.9063C71.6649 52.4798 73.7111 51.3864 75.4626 49.6095C77.7162 47.3188 78.8675 44.5797 78.9166 41.3814C78.9166 41.3048 78.9166 41.2283 78.9166 41.1463C78.9166 39.3093 78.5019 37.5489 77.678 35.8759C76.8486 34.1975 75.7136 32.7924 74.2731 31.6607M68.7893 15.8495C68.2382 15.7183 67.6598 15.6526 67.0541 15.6526H63.8184V21.3823C63.8184 22.7436 64.304 23.9136 65.2807 24.8922C66.252 25.8709 67.4251 26.3629 68.7838 26.3629V15.8495H68.7893ZM63.8184 41.8898V51.3864C63.8184 51.9878 63.7583 52.5673 63.6274 53.1195C63.3382 54.3551 62.7216 55.4595 61.7831 56.4381C60.5172 57.7502 59.0002 58.4555 57.2269 58.543C57.085 58.5485 56.954 58.5539 56.8176 58.5539C54.8642 58.5539 53.2163 57.8486 51.8631 56.4381C50.5153 55.0221 49.8387 53.3382 49.8387 51.3864V40.5668C49.8387 40.4629 49.8332 40.3645 49.8223 40.2606C49.7514 39.025 49.2767 37.9534 48.3709 37.0513C47.3941 36.0782 46.2264 35.5861 44.8678 35.5861V51.3919C44.8678 53.3437 44.1857 55.0276 42.827 56.4436C41.4738 57.8486 39.8259 58.5539 37.8834 58.5594H37.8616C35.9081 58.5594 34.2602 57.8541 32.907 56.4436C32.0994 55.5962 31.532 54.6558 31.2046 53.617H26.1136C26.5338 55.9679 27.6251 58.0345 29.4148 59.8059C31.7557 62.1131 34.5713 63.2667 37.8616 63.2667H37.8834C39.7113 63.2612 41.4574 62.8512 43.1217 62.0256C44.7968 61.1946 46.1992 60.0574 47.3232 58.6195C48.4855 60.0793 49.8933 61.2219 51.552 62.042C53.2054 62.8621 54.9624 63.2667 56.8176 63.2667C56.954 63.2667 57.085 63.2612 57.2323 63.2612C60.3262 63.1683 63.0053 62.0092 65.2589 59.7895C67.2123 57.8596 68.3528 55.6071 68.6911 53.0211C68.7565 52.4908 68.7947 51.944 68.7947 51.3919V36.9147C67.4142 36.9147 66.2465 37.4012 65.2753 38.3689C64.3095 39.3366 63.8238 40.5121 63.8238 41.8953M25.9117 47.4281C26.4628 47.5593 27.0412 47.6249 27.6469 47.6249H30.8826V41.8953C30.8826 40.5285 30.397 39.3585 29.4148 38.3799C28.4435 37.4012 27.2758 36.9147 25.9117 36.9147V47.4281ZM42.0904 53.125C42.0904 51.7472 41.6102 50.5718 40.6389 49.5986C39.6677 48.6309 38.5 48.1443 37.114 48.1443H27.6414C27.0358 48.1443 26.4628 48.0787 25.9063 47.9475C24.6731 47.6577 23.5708 47.04 22.5996 46.0941C21.1918 44.7328 20.4879 43.0762 20.4879 41.119C20.4879 41.0698 20.4879 41.0205 20.4879 40.9823C20.5206 39.0742 21.2245 37.4778 22.5941 36.1602C24.0019 34.8043 25.6825 34.1319 27.636 34.1319H33.6V29.1512H27.636C25.6825 29.1512 24.0019 28.4678 22.5941 27.1119C21.1863 25.7451 20.4824 24.0886 20.4824 22.1313V22.104C20.4879 20.1576 21.1918 18.512 22.5941 17.1671C23.5708 16.2267 24.1492 15.6198 25.3824 15.3301V11.8912C25.3824 11.3335 25.4152 10.7868 25.4861 10.262C22.8888 10.59 21.1591 11.7272 19.2329 13.668C16.9357 16.008 15.7789 18.8182 15.7734 22.104V22.1313C15.7734 23.9683 16.1881 25.7233 17.0121 27.4017C17.8415 29.0801 18.9764 30.4852 20.417 31.6115C18.9546 32.776 17.8196 34.192 17.0012 35.8431C16.2045 37.4614 15.8007 39.1726 15.7789 40.9823C15.7789 41.0205 15.7789 41.0698 15.7789 41.119C15.7789 44.3993 16.9357 47.2149 19.2547 49.5767C21.1754 51.5395 23.429 52.6821 26.0099 53.0156C26.5392 53.0812 27.0849 53.1195 27.636 53.1195H42.0849L42.0904 53.125Z" fill="#83764F"/>
<path d="M44.3732 23.1385C44.3623 22.9963 44.3568 18.1797 44.3568 18.1797H34.1367V45.2151H44.3514V40.2563H39.0858V23.1385H44.3732ZM50.3645 18.1797V23.1385H56.1648V40.2563H50.3536V45.2151H61.1139V18.1797H50.3645Z" fill="#862634"/>
</g>
<defs>
<clipPath id="clip0_15995_41151">
<rect width="94" height="120" fill="white"/>
</clipPath>
</defs>
</svg>
