<svg width="80" height="80" viewBox="0 0 80 80" fill="none" xmlns="http://www.w3.org/2000/svg">
<path d="M46.4615 67.1621H59.3268C59.4874 66.4639 59.5677 65.7311 59.5677 64.9706V60.8642H52.5563C50.8904 60.8642 49.452 61.4863 48.2545 62.7238C47.0636 63.9613 46.4615 65.4407 46.4615 67.1621ZM19.8143 27.0308V15.0225C19.8143 14.262 19.8946 13.5292 20.0552 12.831C20.4097 11.2686 21.1657 9.8721 22.3165 8.64155C23.9823 6.85102 26.0162 5.95921 28.4046 5.95921C28.5785 5.95921 28.7458 5.95921 28.9063 5.97304C31.0874 6.09056 32.9405 6.97546 34.486 8.64155C36.1452 10.4252 36.9681 12.5544 36.9681 15.0225V28.7038C36.9681 28.8904 36.9748 29.0771 36.9948 29.2568C37.1152 30.7501 37.6973 32.0498 38.7677 33.149C39.9653 34.3864 41.397 35.0017 43.0696 35.0017V15.0225C43.0696 12.5544 43.8992 10.4252 45.5717 8.64155C47.2376 6.85102 49.2714 5.95921 51.6598 5.95921H51.7535C54.1084 5.98686 56.1021 6.87176 57.7279 8.64155C58.6979 9.68545 59.387 10.8538 59.7884 12.1466H66.0438C65.522 9.20152 64.1839 6.60906 62.0029 4.38991C59.1596 1.48635 55.7409 0.027653 51.7468 0C51.7133 0 51.6866 0 51.6531 0C49.4052 0 47.251 0.525406 45.2037 1.56931C43.1498 2.62012 41.4304 4.05807 40.0456 5.88317C38.6206 4.03733 36.8945 2.59246 34.8673 1.55548C32.9807 0.594539 30.9937 0.0898721 28.9063 0.0207397C28.7391 0.0207397 28.5718 0.00691324 28.4046 0.00691324C24.3971 0.00691324 20.945 1.47252 18.0548 4.41065C15.6597 6.84411 14.2547 9.69927 13.8466 12.9692C13.7663 13.6398 13.7195 14.3311 13.7195 15.0294V33.3356C15.4121 33.3356 16.8505 32.7204 18.0347 31.5036C19.2189 30.2731 19.8143 28.7936 19.8143 27.0377M35.1818 36.8545H30.5655V42.9658C31.6226 42.7031 32.5592 42.15 33.3821 41.2997C34.5797 40.0622 35.1818 38.5828 35.1818 36.8614M44.8425 43.1594H50.2147V36.9029C48.8432 37.055 47.6524 37.6564 46.6355 38.7141C45.4379 39.9447 44.8425 41.431 44.8425 43.1594ZM33.556 12.8448H20.6907C20.5369 13.543 20.4566 14.2758 20.4566 15.0363V19.1358H27.4612C29.1338 19.1358 30.5655 18.5206 31.7631 17.2831C32.9606 16.0525 33.556 14.5662 33.556 12.8448ZM73.015 40.0415C74.808 38.569 76.2063 36.7853 77.2098 34.6837C78.2133 32.5821 78.7084 30.3629 78.7084 28.0124C78.7084 27.729 78.7017 27.4456 78.6884 27.169C78.5077 23.3806 77.0961 20.1037 74.4534 17.3177C72.0985 14.8427 69.3354 13.3909 66.1709 12.9692C65.522 12.8794 64.853 12.8379 64.1706 12.8379H46.4615C46.4615 14.5869 47.0569 16.0733 48.2411 17.2969C49.4253 18.5206 50.8637 19.1289 52.5563 19.1289H64.1706C64.9132 19.1289 65.6156 19.2119 66.298 19.3778C67.81 19.7442 69.1681 20.5185 70.359 21.7145C71.8844 23.2423 72.7407 25.0536 72.9147 27.1621C72.9348 27.4386 72.9548 27.7221 72.9548 28.0055C72.9548 30.4805 72.0918 32.5683 70.359 34.2828C68.6329 35.9972 66.5723 36.8545 64.1772 36.8545H57.5271V43.1524H64.1772C66.5723 43.1524 68.6329 44.0097 70.359 45.738C72.0918 47.4594 72.9548 49.561 72.9548 52.029C72.9548 52.1258 72.9481 52.2226 72.9481 52.3263C72.8812 54.6768 72.0182 56.6609 70.359 58.3063C69.3421 59.3156 68.2114 60.0207 66.9671 60.4355V66.8994C69.8171 66.3602 72.3259 64.9775 74.4735 62.7307C77.2366 59.8341 78.6482 56.3706 78.7084 52.3263C78.7084 52.2295 78.7084 52.1327 78.7084 52.029C78.7084 49.7062 78.2 47.4801 77.1897 45.3647C76.1728 43.2423 74.7812 41.4656 73.015 40.0346M66.2914 20.0415C65.6156 19.8756 64.9065 19.7926 64.1639 19.7926H60.1966V27.0377C60.1966 28.7591 60.792 30.2385 61.9895 31.476C63.1804 32.7134 64.6188 33.3356 66.2847 33.3356V20.0415H66.2914ZM60.1966 52.9692V64.9775C60.1966 65.738 60.123 66.4708 59.9624 67.169C59.6078 68.7314 58.8518 70.1279 57.7011 71.3654C56.149 73.0245 54.2891 73.9164 52.1148 74.027C51.9408 74.0339 51.7802 74.0408 51.613 74.0408C49.2179 74.0408 47.1974 73.149 45.5383 71.3654C43.8858 69.5748 43.0562 67.4456 43.0562 64.9775V51.2962C43.0562 51.1649 43.0495 51.0404 43.0361 50.9091C42.9491 49.3467 42.3671 47.9917 41.2565 46.851C40.059 45.6205 38.6272 44.9983 36.9614 44.9983V64.9844C36.9614 67.4525 36.1251 69.5817 34.4592 71.3723C32.8001 73.149 30.7796 74.0408 28.3979 74.0477H28.3711C25.976 74.0477 23.9556 73.1559 22.2964 71.3723C21.3062 70.3007 20.6105 69.1116 20.209 67.7981H13.9671C14.4822 70.7708 15.8202 73.384 18.0146 75.6239C20.8848 78.5413 24.3369 80 28.3711 80H28.3979C30.6391 79.9931 32.78 79.4746 34.8205 78.4307C36.8744 77.3799 38.5938 75.9419 39.972 74.1237C41.397 75.9696 43.1231 77.4145 45.1569 78.4514C47.1841 79.4884 49.3383 80 51.613 80C51.7802 80 51.9408 79.9931 52.1214 79.9931C55.9148 79.8756 59.1997 78.41 61.9628 75.6032C64.3579 73.1628 65.7561 70.3146 66.1709 67.0446C66.2512 66.374 66.298 65.6827 66.298 64.9844V46.6782C64.6054 46.6782 63.1737 47.2935 61.9828 48.5171C60.7987 49.7408 60.2032 51.2271 60.2032 52.9761M13.7195 59.9723C14.3952 60.1383 15.1044 60.2212 15.847 60.2212H19.8143V52.9761C19.8143 51.2478 19.2189 49.7684 18.0146 48.5309C16.8238 47.2935 15.3921 46.6782 13.7195 46.6782V59.9723ZM33.556 67.1759C33.556 65.4338 32.9673 63.9475 31.7764 62.7169C30.5856 61.4933 29.1539 60.878 27.4546 60.878H15.8403C15.0977 60.878 14.3952 60.795 13.7128 60.6291C12.2008 60.2627 10.8494 59.4815 9.65854 58.2855C7.93246 56.5641 7.06942 54.4694 7.06942 51.9945C7.06942 51.9323 7.06942 51.87 7.06942 51.8216C7.10956 49.4089 7.9726 47.3903 9.65185 45.7242C11.3779 44.0097 13.4385 43.1594 15.8336 43.1594H23.146V36.8614H15.8336C13.4385 36.8614 11.3779 35.9972 9.65185 34.2828C7.92577 32.5544 7.06273 30.4597 7.06273 27.9848V27.9502C7.06942 25.4891 7.93246 23.4082 9.65185 21.7076C10.8494 20.5185 11.5586 19.7511 13.0706 19.3847V15.0363C13.0706 14.3311 13.1107 13.6398 13.1977 12.9761C10.0131 13.3909 7.89232 14.8289 5.53067 17.2831C2.71408 20.242 1.29575 23.7954 1.28906 27.9502V27.9848C1.28906 30.3076 1.79752 32.5268 2.80775 34.6492C3.82466 36.7715 5.21623 38.5482 6.98245 39.9723C5.18947 41.4449 3.7979 43.2354 2.79436 45.3232C1.81759 47.3695 1.32251 49.5334 1.29575 51.8216C1.29575 51.87 1.29575 51.9323 1.29575 51.9945C1.29575 56.1424 2.71408 59.7027 5.55743 62.6893C7.91239 65.1711 10.6755 66.616 13.8399 67.0377C14.4889 67.1206 15.1579 67.169 15.8336 67.169H33.5494L33.556 67.1759Z" fill="#83764F"/>
<path d="M36.7559 29.3799C36.7429 29.2035 36.7364 23.2266 36.7364 23.2266H24.5156V56.7749H36.7298V50.6216H30.4335V29.3799H36.7559ZM43.9201 23.2266V29.3799H50.8558V50.6216H43.907V56.7749H56.7737V23.2266H43.9201Z" fill="#862634"/>
</svg>
