<svg width="124" height="160" viewBox="0 0 124 160" fill="none" xmlns="http://www.w3.org/2000/svg">
<g clip-path="url(#clip0_4859_98292)">
<path d="M99.944 100.838C98.4181 99.322 96.597 98.5638 94.4807 98.5638C92.3645 98.5638 90.5362 99.322 89.0103 100.838C87.4843 102.354 86.7141 104.184 86.7141 106.335V110.978H83.7701C84.1732 110.038 84.382 109.017 84.382 107.902V101.246C83.4966 101.246 82.748 101.567 82.1146 102.201C81.4812 102.843 81.1716 103.608 81.1716 104.498V107.902C81.1716 109.178 80.7326 110.286 79.8544 111.204C78.9834 112.13 77.9181 112.589 76.6513 112.589C75.3844 112.589 74.3191 112.13 73.441 111.204C72.5556 110.278 72.1166 109.178 72.1166 107.902V95.4293C72.1166 94.5254 71.807 93.76 71.1808 93.1185C70.5546 92.4916 69.7988 92.1708 68.899 92.1708V107.895C68.899 110.038 69.6692 111.875 71.188 113.391C72.714 114.907 74.5351 115.665 76.6513 115.665C78.4436 115.665 80.02 115.126 81.3732 114.054H94.4879C96.6042 114.054 98.4253 113.303 99.9512 111.795C101.477 110.293 102.24 108.463 102.24 106.32C102.24 104.177 101.484 102.347 99.9512 100.824M97.7127 109.6C96.8345 110.512 95.762 110.963 94.5023 110.963H89.9748V106.32C89.9748 105.037 90.4139 103.936 91.2848 103.011C92.163 102.085 93.2355 101.625 94.4951 101.625C95.7548 101.625 96.8273 102.085 97.7055 103.011C98.5764 103.936 99.0155 105.037 99.0155 106.32C99.0155 107.603 98.5764 108.689 97.7055 109.6M64.7386 100.824C63.2126 99.3074 61.3915 98.5493 59.2753 98.5493C57.1591 98.5493 55.3308 99.3074 53.8048 100.824C52.2717 102.34 51.5087 104.17 51.5087 106.32V110.963H47.3122C48.3487 109.629 48.8742 108.084 48.8742 106.32C48.8742 104.177 48.1112 102.347 46.5852 100.824C45.0593 99.3074 43.2382 98.5493 41.1219 98.5493C39.0057 98.5493 37.1774 99.3074 35.6515 100.824C34.1183 102.34 33.3553 104.17 33.3553 106.32V110.963C33.3553 110.963 33.3553 114.047 30.3105 114.047H59.2825C61.3987 114.047 63.2198 113.296 64.7458 111.787C66.2718 110.286 67.0348 108.456 67.0348 106.313C67.0348 104.17 66.2718 102.34 64.7458 100.816M36.6088 110.956V106.313C36.6088 105.03 37.0479 103.929 37.926 103.003C38.8042 102.077 39.8695 101.618 41.1363 101.618C42.4032 101.618 43.4685 102.077 44.3467 103.003C45.2248 103.929 45.6639 105.03 45.6639 106.313C45.6639 107.596 45.2248 108.682 44.3467 109.593C43.4685 110.504 42.4032 110.956 41.1363 110.956H36.6088ZM62.5 109.593C61.6219 110.504 60.5566 110.956 59.2897 110.956H54.7622V106.313C54.7622 105.03 55.2012 103.929 56.0794 103.003C56.9504 102.077 58.0229 101.618 59.2897 101.618C60.5566 101.618 61.6219 102.077 62.5 103.003C63.3782 103.929 63.8173 105.03 63.8173 106.313C63.8173 107.596 63.3782 108.682 62.5 109.593ZM54.7262 95.4147V97.4704C54.7262 98.3743 54.4167 99.1397 53.7904 99.7812C53.1642 100.415 52.4012 100.729 51.5087 100.729V92.1562C52.4012 92.1562 53.1642 92.477 53.7904 93.1039C54.4167 93.7381 54.7262 94.5035 54.7262 95.4147ZM40.5677 95.9541C40.5677 96.8945 39.8119 97.6526 38.8906 97.6526C37.9692 97.6526 37.2134 96.8945 37.2134 95.9541C37.2134 95.0138 37.9692 94.2557 38.8906 94.2557C39.8119 94.2557 40.5677 95.0138 40.5677 95.9541ZM45.0089 95.9541C45.0089 96.8945 44.2603 97.6526 43.3317 97.6526C42.4032 97.6526 41.6546 96.8945 41.6546 95.9541C41.6546 95.0138 42.4032 94.2557 43.3317 94.2557C44.2603 94.2557 45.0089 95.0138 45.0089 95.9541ZM81.8051 95.9541C81.8051 96.8945 81.0565 97.6526 80.1279 97.6526C79.1994 97.6526 78.4508 96.8945 78.4508 95.9541C78.4508 95.0138 79.1994 94.2557 80.1279 94.2557C81.0565 94.2557 81.8051 95.0138 81.8051 95.9541Z" fill="#862634"/>
<path d="M27.0431 108.328H22.7099C22.7099 108.328 22.4796 114.058 29.1522 114.058H33.4854C26.6976 114.058 27.0431 108.328 27.0431 108.328Z" fill="#83764F"/>
<path d="M44.7787 143.776C45.1098 143.776 45.3473 143.521 45.3473 143.207C45.3473 142.872 45.1026 142.631 44.7787 142.631C44.4692 142.631 44.2172 142.887 44.2172 143.2C44.2172 143.543 44.4692 143.783 44.7787 143.783M50.7458 143.783C51.0697 143.783 51.3145 143.528 51.3145 143.215C51.3145 142.879 51.0553 142.639 50.7458 142.639C50.4363 142.639 50.1772 142.894 50.1772 143.207C50.1772 143.55 50.4363 143.79 50.7458 143.79M21.7163 143.564C22.0474 143.564 22.2777 143.287 22.2777 142.996C22.2777 142.646 22.0258 142.398 21.7163 142.398C21.3852 142.398 21.1476 142.675 21.1476 142.974C21.1476 143.309 21.3852 143.564 21.7163 143.564ZM49.2486 143.79C49.5725 143.79 49.8317 143.535 49.8317 143.222C49.8317 142.887 49.5581 142.646 49.2486 142.646C48.9391 142.646 48.68 142.901 48.68 143.215C48.68 143.557 48.9463 143.798 49.2486 143.798M46.2831 143.798C46.607 143.798 46.8517 143.543 46.8517 143.229C46.8517 142.894 46.607 142.653 46.2831 142.653C45.9591 142.653 45.7216 142.908 45.7216 143.222C45.7216 143.564 45.9735 143.805 46.2831 143.805M14.6478 143.805C14.9789 143.805 15.2237 143.55 15.2237 143.236C15.2237 142.901 14.9573 142.661 14.6478 142.661C14.3383 142.661 14.0792 142.916 14.0792 143.229C14.0792 143.572 14.3383 143.812 14.6478 143.812M64.5012 143.812C64.8107 143.812 65.0626 143.557 65.0626 143.244C65.0626 142.908 64.8107 142.668 64.5012 142.668C64.1773 142.668 63.9326 142.923 63.9326 143.236C63.9326 143.579 64.1773 143.82 64.5012 143.82M113.052 143.82C113.383 143.82 113.628 143.564 113.628 143.251C113.628 142.916 113.354 142.675 113.052 142.675C112.749 142.675 112.476 142.93 112.476 143.244C112.476 143.586 112.749 143.827 113.052 143.827M113.973 143.244C113.973 143.586 114.247 143.827 114.542 143.827C114.873 143.827 115.118 143.572 115.118 143.258C115.118 142.923 114.851 142.682 114.542 142.682C114.232 142.682 113.973 142.938 113.973 143.251M98.0583 143.601C98.3822 143.601 98.6197 143.324 98.6197 143.032C98.6197 142.682 98.3606 142.435 98.0583 142.435C97.7344 142.435 97.4752 142.712 97.4752 143.01C97.4752 143.346 97.7272 143.601 98.0583 143.601ZM113.8 142.362C114.124 142.362 114.369 142.092 114.369 141.786C114.369 141.45 114.124 141.195 113.8 141.195C113.476 141.195 113.232 141.472 113.232 141.786C113.232 142.099 113.491 142.362 113.8 142.362ZM66.0056 143.827C66.3079 143.827 66.567 143.572 66.567 143.258C66.567 142.923 66.3079 142.682 66.0056 142.682C65.6817 142.682 65.4297 142.938 65.4297 143.251C65.4297 143.594 65.6817 143.834 66.0056 143.834M80.0489 143.834C80.3728 143.834 80.6175 143.579 80.6175 143.266C80.6175 142.93 80.344 142.69 80.0489 142.69C79.7394 142.69 79.4658 142.945 79.4658 143.258C79.4658 143.601 79.7394 143.841 80.0489 143.841M96.5611 143.615C96.8922 143.615 97.1225 143.338 97.1225 143.047C97.1225 142.697 96.8706 142.449 96.5611 142.449C96.2516 142.449 95.9925 142.726 95.9925 143.025C95.9925 143.36 96.2372 143.615 96.5611 143.615ZM23.2206 143.615C23.5518 143.615 23.7821 143.338 23.7821 143.047C23.7821 142.697 23.523 142.449 23.2206 142.449C22.8967 142.449 22.6448 142.726 22.6448 143.025C22.6448 143.36 22.8967 143.615 23.2206 143.615ZM13.1506 143.841C13.4817 143.841 13.7337 143.586 13.7337 143.273C13.7337 142.938 13.4674 142.697 13.1506 142.697C12.8339 142.697 12.582 142.952 12.582 143.266C12.582 143.608 12.8555 143.849 13.1506 143.849M55.7916 144.228V147.617L53.6394 143.849H52.4014L53.3083 144.949L55.0502 147.96H53.0924L52.6893 148.813H55.3525C55.7844 148.813 56.1227 148.674 56.3603 148.39C56.5978 148.128 56.713 147.8 56.713 147.406V142.712L55.5685 142.967L55.7916 144.235V144.228ZM57.9006 143.958V148.813H58.8292V143.951L58.9371 142.69L57.7639 142.784L57.9006 143.958ZM89.6294 144.162V147.18C89.6294 147.698 89.3991 147.96 88.9456 147.96H87.2181C86.7574 147.96 86.5343 147.712 86.5343 147.209V146.356L86.6495 145.372C86.2032 145.226 85.7569 145.154 85.289 145.154C83.8638 145.154 83.0001 145.977 82.9497 147.333C82.9353 147.756 82.7265 147.96 82.3019 147.96H81.3733C80.9126 147.96 80.6895 147.712 80.6895 147.209V144.796L79.581 145.052L79.7682 146.283V147.202C79.7682 147.705 79.545 147.953 79.0844 147.953H77.9687C77.5152 147.953 77.292 147.69 77.292 147.173V142.697L76.198 142.952L76.3563 144.169V147.391C76.3563 148.274 76.889 148.798 77.7455 148.798H79.3291C79.6818 148.798 79.9841 148.704 80.2288 148.521C80.4664 148.711 80.7687 148.798 81.1502 148.798H82.561C82.8201 148.798 83.0576 148.74 83.2664 148.631C83.5399 149.09 83.943 149.338 84.4685 149.338C85.1163 149.338 85.6705 149.061 86.124 148.507C86.3687 148.704 86.6638 148.798 87.0093 148.798H89.1832C90.0397 148.798 90.5724 148.266 90.5724 147.391V142.639L89.4855 142.908L89.6438 144.162H89.6294ZM85.5985 148.135C85.325 148.419 85.0299 148.565 84.6916 148.565C84.2453 148.565 83.907 148.099 83.907 147.289C83.907 146.298 84.2957 145.802 85.0803 145.802C85.2386 145.802 85.3826 145.824 85.5266 145.868L85.5985 146.4V148.135ZM91.7456 143.951V148.806H92.6742V143.944L92.7749 142.682L91.6017 142.777L91.7384 143.951H91.7456ZM115.672 145.044L115.837 146.276V147.209C115.837 147.712 115.614 147.96 115.175 147.96C114.873 147.96 114.599 147.843 114.369 147.603V145.154L113.455 145.358V147.202C113.455 147.705 113.224 147.953 112.785 147.953C112.461 147.953 112.188 147.836 111.958 147.617V145.154L111.036 145.358L111.022 147.187C111.022 147.69 110.799 147.938 110.345 147.938H109.222C108.769 147.938 108.539 147.676 108.539 147.151V144.782L107.423 145.037L107.61 146.305L107.624 148.689C107.624 149.637 107.193 150.242 106.322 150.519L106.523 150.891C107.754 150.548 108.416 149.834 108.531 148.725C108.675 148.769 108.834 148.784 108.999 148.784H110.568C110.993 148.784 111.324 148.66 111.576 148.427C111.641 148.361 111.706 148.288 111.756 148.215C112.123 148.594 112.541 148.777 113.03 148.777C113.52 148.777 113.908 148.602 114.16 148.237C114.506 148.602 114.93 148.777 115.427 148.777C116.255 148.777 116.787 148.237 116.787 147.406V144.767L115.679 145.022L115.672 145.044ZM103.738 144.658H101.996L102.831 143.805L104.162 142.69H102.831C102.226 143.433 101.369 144.359 100.232 145.474H103.536C104.587 145.474 105.12 145.832 105.12 146.56V147.946H99.4331C98.9796 147.946 98.7493 147.683 98.7493 147.18V144.002C98.4038 144.067 98.0295 144.148 97.6264 144.257L97.684 144.687H97.3817C96.7266 144.687 96.194 144.869 95.7909 145.256C95.3878 145.627 95.1935 146.116 95.1935 146.735C95.1935 147.873 95.7981 148.594 96.8058 148.594C97.2809 148.594 97.684 148.5 98.0151 148.325C98.3174 148.645 98.7061 148.806 99.2028 148.806H106.048V146.407C106.048 145.314 105.206 144.658 103.745 144.658M97.8351 147.69C97.576 147.771 97.3025 147.807 97.0146 147.807C96.4387 147.807 96.1508 147.391 96.1436 146.56C96.1436 146.211 96.2588 145.912 96.4891 145.686C96.7267 145.445 97.0002 145.329 97.3241 145.321C97.4825 145.321 97.648 145.314 97.8279 145.307V147.69H97.8351ZM74.5136 145.226C74.0889 144.913 73.5563 144.76 72.9013 144.76C72.2894 144.76 71.6776 145.03 71.037 145.569C70.5043 145.999 70.1012 146.473 69.8277 146.983V144.235L69.9285 142.989L68.7624 143.091L68.8992 144.257V147.96H66.7038V144.796H65.329C64.6596 144.796 64.1413 145 63.7382 145.387C63.3351 145.78 63.1408 146.32 63.1408 146.991C63.1408 148.142 63.8534 148.813 64.8323 148.813H65.7608C65.6961 149.804 65.221 150.3 64.314 150.3C63.695 150.3 63.2056 150.103 62.8601 149.739C62.457 149.316 62.2554 148.689 62.2554 147.858V147.02H61.3413V147.887C61.3413 149.797 62.3634 150.912 64.2277 150.912C64.9835 150.912 65.5881 150.708 66.0128 150.315C66.4231 149.95 66.6534 149.454 66.6966 148.813H75.147V146.509C75.147 145.97 74.9311 145.555 74.5064 145.241M65.7464 147.96H64.9619C64.3716 147.96 64.0837 147.574 64.0837 146.83C64.0837 145.912 64.4796 145.445 65.2642 145.445H65.7536V147.96H65.7464ZM74.1969 147.96H69.8421C69.9789 147.552 70.3316 147.085 70.893 146.546C71.5552 145.897 72.1527 145.576 72.6925 145.576C73.693 145.576 74.1969 145.941 74.1969 146.655V147.953V147.96ZM19.3121 146.728L19.161 146.393C18.8155 146.488 18.5204 146.67 18.29 146.947C18.0597 147.224 17.9373 147.515 17.9301 147.829C17.8869 148.434 18.2036 148.813 18.6427 148.813C19.0314 148.813 19.233 148.616 19.233 148.223C19.233 147.829 19.0386 147.632 18.6355 147.617C18.5995 147.559 18.5995 147.501 18.5995 147.435C18.5995 147.107 18.945 146.808 19.3121 146.735M13.9208 144.483C13.5393 144.483 13.2082 144.585 12.9275 144.782C12.5388 145.059 12.3445 145.467 12.3445 146.014C12.3445 147.012 12.8699 147.515 13.9208 147.515C14.18 147.515 14.3887 147.479 14.5399 147.399C14.4751 147.778 14.1368 147.967 13.5105 147.967H10.8185V146.517C10.8185 145.977 10.6025 145.562 10.1779 145.248C9.75319 144.935 9.22053 144.782 8.56551 144.782C7.96088 144.782 7.34185 145.052 6.70843 145.591C6.17578 146.021 5.77269 146.495 5.49916 147.005V144.257L5.60713 143.01L4.43386 143.112L4.58502 144.279V147.982H2.92948C2.46881 147.982 2.24567 147.72 2.24567 147.195V144.826L1.12998 145.081L1.31712 146.349V148.733C1.31712 149.68 0.892443 150.285 0.0214844 150.562L0.230226 150.934C1.45389 150.592 2.1233 149.877 2.23127 148.769C2.36803 148.813 2.53359 148.828 2.69914 148.828H13.4458C14.8782 148.828 15.5404 148.135 15.5404 146.429V145.985C15.5404 145.547 15.4108 145.197 15.1517 144.935C14.8566 144.636 14.4463 144.498 13.9352 144.498M9.87555 147.982H5.52076C5.65752 147.574 6.01742 147.107 6.57167 146.568C7.23388 145.919 7.83852 145.598 8.37117 145.598C9.37169 145.598 9.87555 145.963 9.87555 146.677V147.975V147.982ZM14.619 146.779C14.4247 146.867 14.18 146.918 13.8992 146.918C13.4961 146.918 13.2946 146.648 13.2946 146.094C13.2946 145.423 13.5177 145.081 13.9712 145.081C14.4247 145.081 14.6406 145.401 14.6406 146.014C14.6406 146.313 14.6406 146.568 14.6262 146.786M25.4304 149.79C25.1281 149.79 24.8546 150.052 24.8546 150.358C24.8546 150.701 25.1281 150.942 25.4304 150.942C25.7543 150.942 26.0135 150.665 26.0135 150.373C26.0135 150.038 25.74 149.79 25.4304 149.79ZM26.834 146.298V147.238C26.834 147.741 26.6109 147.989 26.1502 147.989H24.6099C24.1492 147.989 23.9261 147.727 23.9261 147.224V144.046C23.5805 144.111 23.1991 144.191 22.8032 144.301L22.8535 144.731H22.5584C21.8962 144.731 21.3636 144.913 20.9677 145.299C20.5646 145.671 20.363 146.16 20.363 146.779C20.363 147.916 20.9749 148.638 21.9754 148.638C22.4577 148.638 22.8535 148.543 23.1847 148.368C23.487 148.689 23.8757 148.849 24.3723 148.849H26.3662C27.2155 148.849 27.7482 148.317 27.7482 147.479V144.855L26.6613 145.095L26.8268 146.313L26.834 146.298ZM23.0119 147.727C22.7528 147.807 22.4793 147.843 22.1913 147.843C21.6227 147.843 21.3276 147.428 21.3204 146.597C21.3204 146.247 21.4355 145.948 21.6659 145.722C21.8962 145.482 22.1841 145.365 22.5008 145.358C22.6592 145.358 22.832 145.35 23.0119 145.343V147.727ZM32.3405 146.954C32.3261 146.342 32.1534 145.839 31.8079 145.438C31.4552 145.03 31.0017 144.826 30.4258 144.826C30.2675 144.855 30.1667 144.862 30.1379 144.862C30.1667 145.117 30.1811 145.299 30.1811 145.394C30.2819 145.343 30.3899 145.329 30.469 145.329C30.7426 145.329 30.9585 145.452 31.1241 145.693C31.304 145.963 31.3976 146.327 31.3976 146.794V147.792L31.3688 147.989H29.0006L28.7559 148.842H32.4701L32.3333 147.982V146.961L32.3405 146.954ZM50.0404 144.505C49.6589 144.505 49.3278 144.607 49.0471 144.804C48.6656 145.081 48.4712 145.489 48.4712 146.036C48.4712 147.034 48.9967 147.537 50.0476 147.537C50.3139 147.537 50.5155 147.501 50.6666 147.421C50.6019 147.8 50.2635 147.989 49.6373 147.989H47.3412C46.8949 147.989 46.6717 147.741 46.6717 147.238V144.826L45.5561 145.081L45.7504 146.313V147.231C45.7504 147.734 45.5201 147.982 45.0522 147.982H43.6126V146.597C43.6126 146.057 43.4038 145.642 42.9792 145.343C42.5617 145.03 42.0146 144.877 41.3524 144.877C40.1432 144.877 39.0347 145.678 38.0197 147.275V145.197L37.0984 145.401L37.0768 147.231C37.0768 147.734 36.8465 147.982 36.4002 147.982H35.2989C34.8454 147.982 34.6223 147.72 34.6223 147.202V142.726L33.521 142.981L33.6793 144.199V147.421C33.6793 148.303 34.212 148.828 35.0686 148.828H45.3041C45.6496 148.828 45.9519 148.733 46.2039 148.551C46.4414 148.74 46.7437 148.828 47.118 148.828H49.5509C50.9905 148.828 51.6528 148.135 51.6528 146.429V145.985C51.6528 145.547 51.5232 145.197 51.2569 144.935C50.9618 144.636 50.5515 144.498 50.0404 144.498M42.6697 147.982H38.4372C38.5812 147.581 38.8979 147.136 39.373 146.633C39.9776 145.992 40.575 145.664 41.1365 145.664C42.1514 145.664 42.6769 146.028 42.6769 146.743V147.975L42.6697 147.982ZM50.7242 146.779C50.5227 146.867 50.2851 146.918 50.0044 146.918C49.5941 146.918 49.3926 146.648 49.3926 146.094C49.3926 145.423 49.6229 145.081 50.0692 145.081C50.5155 145.081 50.7314 145.401 50.7314 146.014C50.7314 146.313 50.7314 146.568 50.7314 146.786M26.9276 149.79C26.6181 149.79 26.3446 150.052 26.3446 150.358C26.3446 150.701 26.6181 150.942 26.9276 150.942C27.2515 150.942 27.4963 150.665 27.4963 150.373C27.4963 150.038 27.2227 149.79 26.9276 149.79Z" fill="black"/>
<path d="M1.01465 154.258H3.74269V154.775H1.66247V156.27H3.62752V156.787H1.66247V158.493H3.83627V159.018H1.01465V154.258Z" fill="black"/>
<path d="M8.27007 157.386C8.21248 158.283 7.81659 159.114 6.66491 159.114C5.15333 159.114 4.95898 157.838 4.95898 156.635C4.95898 155.432 5.20372 154.164 6.66491 154.164C7.74461 154.164 8.19809 154.711 8.22688 155.644H7.54307C7.52867 155.104 7.33433 154.645 6.66491 154.645C5.75796 154.645 5.64279 155.535 5.64279 156.635C5.64279 157.736 5.76516 158.625 6.66491 158.625C7.44949 158.625 7.56466 157.962 7.58626 157.379H8.27007V157.386Z" fill="black"/>
<path d="M12.8054 156.643C12.8054 157.839 12.5607 159.114 11.0995 159.114C9.63829 159.114 9.39355 157.839 9.39355 156.643C9.39355 155.448 9.63829 154.172 11.0995 154.172C12.5607 154.172 12.8054 155.44 12.8054 156.643ZM10.0774 156.643C10.0774 157.744 10.1997 158.633 11.0995 158.633C11.9992 158.633 12.1216 157.744 12.1216 156.643C12.1216 155.542 11.9992 154.653 11.0995 154.653C10.1997 154.653 10.0774 155.542 10.0774 156.643Z" fill="black"/>
<path d="M14.1797 154.258H15.0219L16.771 158.231H16.7854V154.258H17.4404V159.018H16.5406L14.8419 155.162H14.8275V159.018H14.1797V154.258Z" fill="black"/>
<path d="M22.2204 156.643C22.2204 157.839 21.9685 159.114 20.5145 159.114C19.0605 159.114 18.8086 157.839 18.8086 156.643C18.8086 155.448 19.0461 154.172 20.5145 154.172C21.9829 154.172 22.2204 155.44 22.2204 156.643ZM19.4924 156.643C19.4924 157.744 19.6076 158.633 20.5145 158.633C21.4215 158.633 21.5366 157.744 21.5366 156.643C21.5366 155.542 21.4215 154.653 20.5145 154.653C19.6076 154.653 19.4924 155.542 19.4924 156.643Z" fill="black"/>
<path d="M23.6094 154.258H24.7107L25.7688 158.027H25.7832L26.8413 154.258H27.9354V159.018H27.2876V154.856H27.2732L26.0999 159.018H25.4449L24.2788 154.856H24.2644V159.018H23.6094V154.258Z" fill="black"/>
<path d="M30.0593 154.258H29.4043V159.018H30.0593V154.258Z" fill="black"/>
<path d="M34.7447 157.386C34.6871 158.283 34.2912 159.114 33.1395 159.114C31.6351 159.114 31.4336 157.838 31.4336 156.635C31.4336 155.432 31.6711 154.164 33.1395 154.164C34.2192 154.164 34.6727 154.711 34.7015 155.644H34.0177C34.0033 155.104 33.8089 154.645 33.1395 154.645C32.2326 154.645 32.1174 155.535 32.1174 156.635C32.1174 157.736 32.2398 158.625 33.1395 158.625C33.9313 158.625 34.0393 157.962 34.0609 157.379H34.7447V157.386Z" fill="black"/>
<path d="M38.0488 158.53L40.4242 154.775H38.1856V154.258H41.108V154.805L38.7326 158.493H41.1368V159.018H38.0488V158.53Z" fill="black"/>
<path d="M45.6638 156.643C45.6638 157.839 45.4191 159.114 43.9579 159.114C42.4967 159.114 42.252 157.839 42.252 156.643C42.252 155.448 42.4967 154.172 43.9579 154.172C45.4191 154.172 45.6638 155.44 45.6638 156.643ZM42.9358 156.643C42.9358 157.744 43.0581 158.633 43.9579 158.633C44.8576 158.633 44.98 157.744 44.98 156.643C44.98 155.542 44.8648 154.653 43.9579 154.653C43.0509 154.653 42.9358 155.542 42.9358 156.643Z" fill="black"/>
<path d="M47.0391 154.258H47.8812L49.6303 158.231H49.6447V154.258H50.2998V159.018H49.4L47.7085 155.162H47.6869V159.018H47.0391V154.258Z" fill="black"/>
<path d="M51.7461 154.258H54.4813V154.775H52.4011V156.27H54.3662V156.787H52.4011V158.493H54.5677V159.018H51.7461V154.258Z" fill="black"/>
<path d="M58.0157 155.491C58.0157 154.995 57.8141 154.645 57.1879 154.645C56.6481 154.645 56.317 154.915 56.317 155.418C56.317 156.759 58.8075 155.957 58.8075 157.692C58.8075 158.793 57.9149 159.106 57.1663 159.106C55.9283 159.106 55.5684 158.538 55.5684 157.517H56.2162C56.2162 158.049 56.2522 158.625 57.2095 158.625C57.7278 158.625 58.1309 158.29 58.1309 157.787C58.1309 156.446 55.6331 157.226 55.6331 155.476C55.6331 155.039 55.8419 154.164 57.1807 154.164C58.1956 154.164 58.6491 154.616 58.6635 155.483H58.0157V155.491Z" fill="black"/>
<path d="M65.6675 157.386C65.6099 158.283 65.2213 159.114 64.0624 159.114C62.558 159.114 62.3564 157.838 62.3564 156.635C62.3564 155.432 62.6012 154.164 64.0624 154.164C65.1421 154.164 65.5955 154.711 65.6243 155.644H64.9405C64.9261 155.104 64.7318 154.645 64.0624 154.645C63.1554 154.645 63.0331 155.535 63.0331 156.635C63.0331 157.736 63.1554 158.625 64.0624 158.625C64.8542 158.625 64.9693 157.962 64.9909 157.379H65.6675V157.386Z" fill="black"/>
<path d="M70.2025 156.643C70.2025 157.839 69.9578 159.114 68.5038 159.114C67.0498 159.114 66.7979 157.839 66.7979 156.643C66.7979 155.448 67.0426 154.172 68.5038 154.172C69.965 154.172 70.2025 155.44 70.2025 156.643ZM67.4817 156.643C67.4817 157.744 67.5968 158.633 68.5038 158.633C69.4107 158.633 69.5259 157.744 69.5259 156.643C69.5259 155.542 69.4035 154.653 68.5038 154.653C67.604 154.653 67.4817 155.542 67.4817 156.643Z" fill="black"/>
<path d="M71.5918 154.258H72.6931L73.7512 158.027H73.7656L74.8237 154.258H75.9178V159.018H75.27V154.856H75.2556L74.0823 159.018H73.4345L72.2612 154.856H72.2468V159.018H71.5918V154.258Z" fill="black"/>
<path d="M77.3857 154.258H78.7318C79.1924 154.258 80.3657 154.258 80.3657 155.628C80.3657 156.503 79.7395 157.006 78.8397 157.006H78.0336V159.018H77.3857V154.258ZM78.0336 156.525H78.8109C79.286 156.525 79.6891 156.233 79.6891 155.599C79.6891 155.082 79.4156 154.739 78.7678 154.739H78.0336V156.525Z" fill="black"/>
<path d="M82.302 154.258H83.1801L84.6053 159.011H83.9215L83.5472 157.706H81.8557L81.467 159.011H80.7832L82.3092 154.258H82.302ZM81.9853 157.232H83.4105L82.7339 154.936H82.7195L81.9853 157.232Z" fill="black"/>
<path d="M85.5625 154.258H86.4047L88.1538 158.231H88.1682V154.258H88.816V159.018H87.9234L86.2247 155.162H86.2103V159.018H85.5625V154.258Z" fill="black"/>
<path d="M89.8242 154.258H90.544L91.5517 156.481L92.5954 154.258H93.2793L91.8756 157.152V159.018H91.2278V157.152L89.8242 154.258Z" fill="black"/>
<path d="M93.5742 158.312H94.258V158.896C94.258 159.406 94.2148 159.851 93.5742 160.004V159.69C93.8333 159.581 93.9053 159.45 93.9053 159.18V159.02H93.5742V158.312Z" fill="black"/>
<path d="M99.7711 158.874C99.5407 159.027 99.2384 159.114 98.8569 159.114C97.3957 159.114 97.1582 157.839 97.1582 156.643C97.1582 155.448 97.4029 154.172 98.8569 154.172C100.311 154.172 100.556 155.44 100.556 156.643C100.556 157.328 100.476 158.043 100.131 158.516L100.664 158.954L100.297 159.304L99.7639 158.866L99.7711 158.874ZM98.8281 158.108L99.188 157.751L99.6775 158.145C99.8431 157.788 99.879 157.248 99.879 156.643C99.879 155.542 99.7567 154.646 98.8569 154.646C97.9572 154.646 97.8348 155.535 97.8348 156.643C97.8348 157.751 97.95 158.633 98.8569 158.633C99.0513 158.633 99.2096 158.597 99.3392 158.516L98.8281 158.108Z" fill="black"/>
<path d="M102.974 154.258H103.852L105.278 159.011H104.594L104.219 157.706H102.528L102.132 159.011H101.448L102.974 154.258ZM102.658 157.232H104.083L103.406 154.936H103.392L102.658 157.232Z" fill="black"/>
<path d="M107.437 159.018H106.79V154.775H105.458V154.258H108.769V154.775H107.437V159.018Z" fill="black"/>
<path d="M110.482 154.258H111.36L112.778 159.011H112.102L111.72 157.706H110.036L109.64 159.011H108.956L110.482 154.258ZM110.165 157.232H111.583L110.907 154.936H110.892L110.165 157.232Z" fill="black"/>
<path d="M113.735 154.258H115.448C116.276 154.258 116.802 154.695 116.802 155.453C116.802 155.971 116.6 156.518 115.981 156.649V156.663C116.442 156.714 116.708 157.05 116.737 157.458L116.78 158.274C116.809 158.799 116.902 158.93 117.061 159.018H116.276C116.161 158.923 116.111 158.566 116.104 158.333L116.053 157.596C116.003 156.94 115.6 156.904 115.269 156.904H114.39V159.025H113.743V154.272L113.735 154.258ZM114.383 156.416H115.031C115.42 156.416 116.118 156.416 116.118 155.504C116.118 155.038 115.765 154.739 115.161 154.739H114.383V156.416Z" fill="black"/>
<path d="M99.2031 129.453C98.7784 129.453 98.4185 129.599 98.1306 129.898C97.8498 130.196 97.7059 130.561 97.7059 130.998C97.7059 131.436 97.857 131.778 98.145 132.063C98.4329 132.347 98.7856 132.493 99.2031 132.493H101.715C102.55 132.493 103.256 132.201 103.846 131.611C104.436 131.02 104.731 130.306 104.731 129.453H99.2031ZM86.6497 126.202C86.2322 126.202 85.8795 126.348 85.5844 126.646C85.2893 126.953 85.1382 127.31 85.1382 127.733C85.1382 128.155 85.2893 128.513 85.5844 128.804C85.8795 129.103 86.2322 129.249 86.6497 129.249H87.3335C88.1613 129.249 88.8667 128.95 89.4642 128.352C90.0616 127.762 90.3567 127.047 90.3567 126.209H86.6569L86.6497 126.202ZM17.3258 124.132C16.2605 124.671 15.3607 125.4 14.6409 126.333C13.8995 125.393 12.9998 124.656 11.9417 124.124C10.8835 123.599 9.76066 123.337 8.58019 123.337C6.49277 123.337 4.70046 124.08 3.18888 125.582C1.6917 127.084 0.928711 128.884 0.928711 131.006V138.631C1.81407 138.631 2.56266 138.317 3.17449 137.69C3.79352 137.063 4.10303 136.305 4.10303 135.416V131.006C4.10303 129.745 4.53491 128.658 5.40587 127.74C6.27683 126.829 7.32774 126.369 8.57299 126.369C9.81824 126.369 10.8764 126.829 11.7329 127.74C12.5967 128.651 13.0286 129.737 13.0286 131.006V135.416C13.0286 136.298 13.3381 137.056 13.9643 137.683C14.5905 138.31 15.3319 138.631 16.2029 138.631V131.006C16.2029 129.745 16.6348 128.658 17.5057 127.74C18.3767 126.829 19.4348 126.369 20.6728 126.369C21.9109 126.369 22.969 126.829 23.8328 127.74C24.6965 128.651 25.1284 129.737 25.1284 131.006V135.416C25.1284 136.298 25.4379 137.056 26.0641 137.683C26.6904 138.31 27.439 138.631 28.3099 138.631V131.006C28.3099 128.877 27.5613 127.069 26.0641 125.575C24.5742 124.08 22.7747 123.337 20.68 123.337C19.5068 123.337 18.3911 123.599 17.3258 124.132ZM34.2483 134.242C33.3845 133.346 32.9526 132.267 32.9526 131.006C32.9526 129.745 33.3845 128.658 34.2483 127.74C35.112 126.829 36.1701 126.369 37.4154 126.369C38.6606 126.369 39.7259 126.829 40.5825 127.74C41.4463 128.651 41.8782 129.737 41.8782 131.006V135.591H37.4154C36.1701 135.591 35.112 135.146 34.2483 134.25M32.0385 125.589C30.5341 127.091 29.7783 128.892 29.7783 131.013C29.7783 133.134 30.5341 134.927 32.0385 136.407C33.5357 137.894 35.3352 138.638 37.4298 138.638H45.0885V131.013C45.0885 128.892 44.3327 127.091 42.8211 125.589C41.3167 124.088 39.51 123.344 37.4298 123.344C35.3496 123.344 33.5429 124.088 32.0385 125.589ZM49.2201 125.589C47.7229 127.091 46.9743 128.892 46.9743 131.013V138.638C47.8453 138.638 48.5867 138.317 49.2129 137.69C49.8319 137.063 50.1415 136.305 50.1415 135.423V131.013C50.1415 129.752 50.5805 128.666 51.4443 127.747C52.3081 126.836 53.3662 126.377 54.6186 126.377C55.8711 126.377 56.9004 126.836 57.7713 127.754C58.6423 128.673 59.0742 129.752 59.0742 131.006V135.416C59.0742 136.298 59.3909 137.056 60.0027 137.683C60.629 138.31 61.3703 138.631 62.2413 138.631V131.006C62.2413 128.884 61.4927 127.084 59.9955 125.582C58.4983 124.08 56.706 123.337 54.6186 123.337C52.5312 123.337 50.7173 124.08 49.2201 125.582M68.1869 134.242C67.3231 133.346 66.8912 132.267 66.8912 131.006C66.8912 129.745 67.3231 128.658 68.1869 127.74C69.0506 126.829 70.1087 126.369 71.3612 126.369C72.6136 126.369 73.6645 126.829 74.5283 127.74C75.3921 128.651 75.8239 129.737 75.8239 131.006V135.591H71.3612C70.1087 135.591 69.0506 135.146 68.1869 134.25M65.9771 125.589C64.4655 127.091 63.7169 128.892 63.7169 131.013C63.7169 133.134 64.4655 134.927 65.9771 136.407C67.4815 137.894 69.2738 138.638 71.3684 138.638H79.0342V131.013C79.0342 128.892 78.2785 127.091 76.7669 125.589C75.2553 124.088 73.4558 123.344 71.3684 123.344C69.281 123.344 67.4815 124.088 65.9771 125.589ZM100.261 123.344C98.1737 123.344 96.3742 124.088 94.8843 125.589C93.3871 127.091 92.6457 128.892 92.6457 131.013C92.6457 133.134 93.3943 134.927 94.8843 136.407C96.3814 137.894 98.1737 138.638 100.261 138.638H104.738C104.738 137.792 104.436 137.078 103.853 136.487C103.263 135.89 102.55 135.591 101.722 135.591H100.268C99.0375 135.591 97.9866 135.139 97.1156 134.235C96.2447 133.331 95.8128 132.252 95.8128 131.006C95.8128 129.759 96.2447 128.666 97.1156 127.754C97.9866 126.836 99.0375 126.377 100.268 126.377H101.722C102.557 126.377 103.263 126.085 103.853 125.495C104.443 124.897 104.738 124.183 104.738 123.344H100.261ZM116.802 127.689C117.688 128.564 118.127 129.635 118.127 130.904V135.161H118.119C118.119 135.248 118.119 135.343 118.119 135.43H113.606C112.354 135.43 111.289 134.993 110.389 134.118C109.489 133.244 109.036 132.165 109.036 130.904C109.036 129.642 109.489 128.564 110.389 127.689C111.289 126.814 112.361 126.369 113.606 126.369C114.852 126.369 115.924 126.814 116.809 127.689M108.258 125.451C106.775 126.967 106.041 128.79 106.041 130.904C106.041 133.018 106.775 134.84 108.258 136.356C109.734 137.88 111.519 138.645 113.606 138.645H118.199C118.199 140.344 118.451 144.499 121.135 145.126V135.43V130.918C121.135 128.804 120.401 126.982 118.933 125.451C117.472 123.927 115.686 123.162 113.599 123.162C111.512 123.162 109.719 123.927 108.251 125.451M80.9273 131.006C80.9273 133.12 81.6687 134.92 83.1731 136.4C84.6703 137.887 86.4626 138.631 88.55 138.631H93.02C93.02 137.785 92.7248 137.071 92.1346 136.48C91.5372 135.882 90.8318 135.584 90.004 135.584H88.55C87.3047 135.584 86.2466 135.139 85.3901 134.242C84.5263 133.346 84.0944 132.267 84.0944 131.006V122.746C84.0944 121.872 83.7849 121.106 83.1587 120.479C82.5397 119.845 81.7911 119.539 80.9273 119.539V131.013V131.006Z" fill="#862634"/>
<path d="M121.128 145.128C121.128 145.128 121.049 145.193 122.057 145.208C122.82 145.222 124 144.945 124 144.945V149.837C124 149.837 122.769 150.179 121.618 147.949C121.143 147.023 121.121 145.128 121.121 145.128" fill="#83764F"/>
<path d="M69.4105 70.8187H83.2523C83.425 70.0825 83.5114 69.3098 83.5114 68.5079V64.1779H75.9679C74.1756 64.1779 72.628 64.8339 71.3396 66.1388C70.0583 67.4436 69.4105 69.0036 69.4105 70.8187ZM40.7408 28.5024V15.8404C40.7408 15.0385 40.8272 14.2658 41 13.5295C41.3815 11.8821 42.1948 10.4096 43.4329 9.11203C45.2252 7.22402 47.4134 6.28366 49.9831 6.28366C50.1702 6.28366 50.3502 6.28366 50.5229 6.29824C52.8695 6.42216 54.8633 7.35523 56.5261 9.11203C58.3112 10.9928 59.1965 13.238 59.1965 15.8404V30.2665C59.1965 30.4633 59.2037 30.6602 59.2253 30.8497C59.3549 32.4243 59.9811 33.7947 61.1328 34.9538C62.4212 36.2586 63.9616 36.9074 65.7611 36.9074V15.8404C65.7611 13.238 66.6537 10.9928 68.4532 9.11203C70.2455 7.22402 72.4336 6.28366 75.0033 6.28366H75.1041C77.6378 6.31282 79.7828 7.24589 81.5319 9.11203C82.5756 10.2128 83.317 11.4447 83.7489 12.8079H90.479C89.9176 9.70249 88.478 6.96888 86.1315 4.62891C83.0723 1.56727 79.3941 0.0291585 75.0969 0C75.0609 0 75.0321 0 74.9961 0C72.5776 0 70.2599 0.554012 68.0573 1.65474C65.8475 2.76277 63.9976 4.27901 62.5076 6.20347C60.9744 4.25714 59.1173 2.73361 56.9363 1.64017C54.9065 0.626908 52.7687 0.0947651 50.5229 0.0218689C50.343 0.0218689 50.163 0.00728963 49.9831 0.00728963C45.6715 0.00728963 41.9573 1.55269 38.8478 4.65078C36.2709 7.21673 34.7593 10.2273 34.3202 13.6753C34.2338 14.3824 34.1835 15.1114 34.1835 15.8476V35.1506C36.0046 35.1506 37.5521 34.5018 38.8262 33.2188C40.1002 31.9213 40.7408 30.3613 40.7408 28.5097M57.2747 38.861H52.308V45.305C53.4453 45.028 54.453 44.4448 55.3384 43.5482C56.6268 42.2434 57.2747 40.6834 57.2747 38.8683M67.6686 45.5091H73.4486V38.912C71.973 39.0724 70.6917 39.7066 69.5976 40.8219C68.3092 42.1195 67.6686 43.6867 67.6686 45.5091ZM55.5255 13.5441H41.6838C41.5182 14.2804 41.4319 15.0531 41.4319 15.8549V20.1777H48.9682C50.7677 20.1777 52.308 19.5289 53.5965 18.2241C54.8849 16.9265 55.5255 15.3592 55.5255 13.5441ZM97.9794 42.2215C99.9084 40.6688 101.413 38.7881 102.493 36.572C103.572 34.356 104.105 32.016 104.105 29.5376C104.105 29.2387 104.098 28.9398 104.083 28.6482C103.889 24.6535 102.37 21.1982 99.5269 18.2605C96.9932 15.6508 94.0205 14.12 90.6158 13.6753C89.9176 13.5806 89.1978 13.5368 88.4636 13.5368H69.4105C69.4105 15.3811 70.0511 16.9484 71.3252 18.2386C72.5992 19.5289 74.1468 20.1704 75.9679 20.1704H88.4636C89.2626 20.1704 90.0184 20.2579 90.7526 20.4328C92.3793 20.8192 93.8405 21.6356 95.1217 22.8967C96.7629 24.5077 97.6842 26.4176 97.8714 28.6409C97.893 28.9325 97.9146 29.2314 97.9146 29.5303C97.9146 32.14 96.986 34.3414 95.1217 36.1493C93.2647 37.9571 91.0477 38.861 88.4708 38.861H81.316V45.5018H88.4708C91.0477 45.5018 93.2647 46.4058 95.1217 48.2282C96.986 50.0433 97.9146 52.2593 97.9146 54.8617C97.9146 54.9638 97.9074 55.0658 97.9074 55.1752C97.8354 57.6536 96.9069 59.7458 95.1217 61.4807C94.0277 62.545 92.8112 63.2885 91.4724 63.7259V70.5417C94.5387 69.9731 97.238 68.5152 99.5485 66.1461C102.521 63.0917 104.04 59.4396 104.105 55.1752C104.105 55.0731 104.105 54.9711 104.105 54.8617C104.105 52.4124 103.558 50.0651 102.471 47.8345C101.377 45.5966 99.8796 43.7232 97.9794 42.2142M90.7454 21.1326C90.0184 20.9577 89.2554 20.8702 88.4564 20.8702H84.188V28.5097C84.188 30.3248 84.8286 31.8848 86.1171 33.1897C87.3983 34.4945 88.9459 35.1506 90.7382 35.1506V21.1326H90.7454ZM84.188 55.8531V68.5152C84.188 69.317 84.1088 70.0898 83.9361 70.826C83.5546 72.4735 82.7412 73.946 81.5031 75.2508C79.8332 77.0003 77.8322 77.9407 75.4928 78.0573C75.3057 78.0646 75.1329 78.0719 74.953 78.0719C72.3761 78.0719 70.2023 77.1315 68.4172 75.2508C66.6393 73.3628 65.7467 71.1176 65.7467 68.5152V54.089C65.7467 53.9505 65.7395 53.8193 65.7251 53.6808C65.6315 52.0333 65.0053 50.6046 63.8104 49.4018C62.522 48.1042 60.9816 47.4482 59.1893 47.4482V68.5225C59.1893 71.1249 58.2896 73.3701 56.4973 75.2581C54.7122 77.1315 52.5384 78.0719 49.9759 78.0792H49.9471C47.3702 78.0792 45.1964 77.1388 43.4113 75.2581C42.346 74.1282 41.5974 72.8744 41.1655 71.4894H34.4498C35.004 74.6239 36.4436 77.3794 38.8046 79.7412C41.8925 82.8174 45.6067 84.3555 49.9471 84.3555H49.9759C52.3872 84.3483 54.6906 83.8015 56.886 82.7008C59.0957 81.5928 60.9456 80.0765 62.4284 78.1594C63.9616 80.1057 65.8187 81.6292 68.0069 82.7227C70.1879 83.8161 72.5056 84.3555 74.953 84.3555C75.1329 84.3555 75.3057 84.3483 75.5 84.3483C79.5813 84.2243 83.1155 82.6789 86.0883 79.7193C88.6652 77.1461 90.1695 74.1428 90.6158 70.6948C90.7022 69.9877 90.7526 69.2587 90.7526 68.5225V49.2195C88.9315 49.2195 87.3911 49.8683 86.1099 51.1586C84.8358 52.4489 84.1952 54.0161 84.1952 55.8604M34.1835 63.2375C34.9105 63.4125 35.6734 63.4999 36.4724 63.4999H40.7408V55.8604C40.7408 54.038 40.1002 52.478 38.8046 51.1732C37.5233 49.8683 35.983 49.2195 34.1835 49.2195V63.2375ZM55.5255 70.8333C55.5255 68.9963 54.8921 67.429 53.6109 66.1315C52.3296 64.8412 50.7893 64.1924 48.961 64.1924H36.4652C35.6662 64.1924 34.9105 64.105 34.1763 63.93C32.5495 63.5437 31.0955 62.7199 29.8143 61.4588C27.9572 59.6437 27.0286 57.435 27.0286 54.8253C27.0286 54.7597 27.0286 54.6941 27.0286 54.643C27.0718 52.099 28.0004 49.9704 29.8071 48.2136C31.6642 46.4058 33.8811 45.5091 36.458 45.5091H44.3254V38.8683H36.458C33.8811 38.8683 31.6642 37.9571 29.8071 36.1493C27.95 34.3268 27.0214 32.1181 27.0214 29.5084V29.472C27.0286 26.8768 27.9572 24.6827 29.8071 22.8894C31.0955 21.6356 31.8585 20.8265 33.4853 20.4401V15.8549C33.4853 15.1114 33.5284 14.3824 33.622 13.6826C30.1958 14.12 27.914 15.6362 25.3731 18.2241C22.3427 21.344 20.8168 25.0909 20.8096 29.472V29.5084C20.8096 31.9577 21.3566 34.2977 22.4435 36.5356C23.5376 38.7735 25.0348 40.6469 26.9351 42.1486C25.006 43.7013 23.5088 45.5893 22.4291 47.7908C21.3782 49.9485 20.8456 52.2302 20.8168 54.643C20.8168 54.6941 20.8168 54.7597 20.8168 54.8253C20.8168 59.199 22.3427 62.9532 25.4019 66.1023C27.9356 68.7193 30.9084 70.2428 34.313 70.6875C35.0112 70.775 35.731 70.826 36.458 70.826H55.5183L55.5255 70.8333Z" fill="#83764F"/>
<path d="M58.5337 30.8461C58.5193 30.6565 58.5121 24.2344 58.5121 24.2344H45.0303V60.2816H58.5049V53.6699H51.5589V30.8461H58.5337ZM66.4371 24.2344V30.8461H74.0886V53.6699H66.4227V60.2816H80.6172V24.2344H66.4371Z" fill="#862634"/>
</g>
<defs>
<clipPath id="clip0_4859_98292">
<rect width="124" height="160" fill="white"/>
</clipPath>
</defs>
</svg>
