<svg width="158" height="40" viewBox="0 0 158 40" fill="none" xmlns="http://www.w3.org/2000/svg">
<g clip-path="url(#clip0_16740_36902)">
<path d="M134.96 9.26094C134.565 9.26094 134.226 9.39488 133.963 9.67233C133.7 9.94977 133.568 10.2846 133.568 10.696C133.568 11.1074 133.7 11.4231 133.972 11.691C134.245 11.9589 134.574 12.0928 134.96 12.0928H137.292C138.064 12.0928 138.722 11.8154 139.277 11.27C139.822 10.7151 140.105 10.0454 140.105 9.26094H134.969H134.96ZM123.297 6.22817C122.912 6.22817 122.583 6.37168 122.31 6.64913C122.037 6.92657 121.896 7.27099 121.896 7.66324C121.896 8.05549 122.028 8.39034 122.31 8.65822C122.583 8.93566 122.912 9.0696 123.297 9.0696H123.927C124.699 9.0696 125.357 8.79215 125.903 8.23726C126.457 7.68237 126.73 7.01268 126.73 6.22817H123.297ZM58.8897 4.30519C57.8927 4.80268 57.065 5.49151 56.3973 6.35255C55.7107 5.47237 54.8736 4.78354 53.8955 4.29562C52.9079 3.8077 51.8733 3.55896 50.7729 3.55896C48.8354 3.55896 47.1612 4.25735 45.7693 5.65415C44.3679 7.05094 43.6719 8.73475 43.6719 10.7151V17.8331C44.4901 17.8331 45.1861 17.546 45.7599 16.9624C46.3336 16.3789 46.6157 15.6709 46.6157 14.8386V10.7247C46.6157 9.54795 47.0202 8.53384 47.829 7.68237C48.6379 6.8309 49.616 6.40995 50.7729 6.40995C51.9297 6.40995 52.9079 6.84047 53.7073 7.68237C54.5068 8.53384 54.9112 9.54795 54.9112 10.7247V14.8386C54.9112 15.6613 55.2028 16.3693 55.7765 16.9529C56.3502 17.5365 57.0462 17.8331 57.8551 17.8331V10.7151C57.8551 9.53839 58.2595 8.52428 59.059 7.67281C59.8678 6.82133 60.846 6.40038 62.0028 6.40038C63.1597 6.40038 64.1379 6.8309 64.9373 7.67281C65.7368 8.52428 66.1412 9.53839 66.1412 10.7151V14.829C66.1412 15.6518 66.4327 16.3597 67.0065 16.9433C67.5802 17.5269 68.2762 17.8235 69.085 17.8235V10.7056C69.085 8.71562 68.3891 7.03181 67.0065 5.64458C65.6239 4.25735 63.9497 3.55896 62.0028 3.55896C60.9212 3.55896 59.8772 3.8077 58.8803 4.30519M74.5966 13.7288C73.7971 12.8869 73.3927 11.8823 73.3927 10.7056C73.3927 9.52882 73.7971 8.51471 74.5966 7.66324C75.396 6.81177 76.3836 6.39081 77.5404 6.39081C78.6973 6.39081 79.6848 6.82133 80.4843 7.66324C81.2837 8.51471 81.6882 9.52882 81.6882 10.7056V14.9916H77.5404C76.3836 14.9916 75.4054 14.5707 74.5966 13.7288ZM72.5462 5.64458C71.1448 7.04138 70.4488 8.72518 70.4488 10.7056C70.4488 12.686 71.1448 14.3602 72.5462 15.7474C73.9382 17.1347 75.6123 17.8235 77.5498 17.8235H84.6697V10.7056C84.6697 8.73475 83.9737 7.04138 82.5629 5.64458C81.1615 4.24779 79.4873 3.54939 77.5498 3.54939C75.6123 3.54939 73.9382 4.24779 72.5462 5.64458ZM88.507 5.64458C87.115 7.04138 86.419 8.72518 86.419 10.7056V17.8235C87.2279 17.8235 87.9145 17.5269 88.4976 16.9433C89.0714 16.3597 89.3629 15.6518 89.3629 14.829V10.7151C89.3629 9.53839 89.7673 8.52428 90.5762 7.67281C91.3851 6.82133 92.3632 6.40038 93.5201 6.40038C94.6769 6.40038 95.6457 6.8309 96.4451 7.68237C97.254 8.54341 97.6584 9.54795 97.6584 10.7151V14.829C97.6584 15.6518 97.95 16.3597 98.5237 16.9433C99.0974 17.5269 99.7934 17.8235 100.602 17.8235V10.7056C100.602 8.73475 99.9063 7.04138 98.5143 5.64458C97.1223 4.24779 95.4576 3.54939 93.5201 3.54939C91.5826 3.54939 89.899 4.24779 88.507 5.64458ZM106.123 13.7288C105.324 12.8869 104.919 11.8823 104.919 10.7056C104.919 9.52882 105.324 8.51471 106.123 7.66324C106.923 6.81177 107.901 6.39081 109.067 6.39081C110.233 6.39081 111.202 6.82133 112.011 7.66324C112.81 8.51471 113.215 9.52882 113.215 10.7056V14.9916H109.067C107.91 14.9916 106.923 14.5707 106.123 13.7288ZM104.063 5.64458C102.662 7.04138 101.966 8.72518 101.966 10.7056C101.966 12.686 102.662 14.3602 104.063 15.7474C105.465 17.1347 107.13 17.8235 109.067 17.8235H116.187V10.7056C116.187 8.73475 115.481 7.04138 114.08 5.64458C112.679 4.24779 111.005 3.54939 109.067 3.54939C107.13 3.54939 105.455 4.24779 104.063 5.64458ZM135.919 3.54939C133.982 3.54939 132.317 4.24779 130.925 5.64458C129.533 7.04138 128.837 8.72518 128.837 10.7056C128.837 12.686 129.533 14.3602 130.925 15.7474C132.317 17.1347 133.982 17.8235 135.919 17.8235H140.076C140.076 17.039 139.804 16.3693 139.249 15.8144C138.703 15.2595 138.035 14.9821 137.264 14.9821H135.91C134.762 14.9821 133.784 14.5611 132.985 13.7096C132.176 12.8677 131.772 11.8632 131.772 10.696C131.772 9.52882 132.176 8.52428 132.985 7.66324C133.794 6.8022 134.762 6.38125 135.91 6.38125H137.264C138.035 6.38125 138.694 6.1038 139.249 5.55848C139.794 5.00359 140.076 4.33389 140.076 3.54939H135.919ZM151.278 7.60583C152.106 8.41904 152.51 9.42358 152.51 10.6099V14.5802H152.501C152.501 14.6663 152.501 14.7524 152.501 14.829H148.306C147.149 14.829 146.152 14.4176 145.315 13.6044C144.478 12.7912 144.064 11.7867 144.064 10.6003C144.064 9.41401 144.478 8.41904 145.315 7.59627C146.152 6.78307 147.149 6.37168 148.306 6.37168C149.463 6.37168 150.46 6.78307 151.278 7.59627M143.331 5.50108C141.957 6.91701 141.271 8.61995 141.271 10.5908C141.271 12.5616 141.957 14.2645 143.331 15.6805C144.704 17.106 146.359 17.8139 148.306 17.8139H152.576C152.576 19.4021 152.811 23.2672 155.304 23.8603V14.8099V10.6003C155.304 8.61995 154.617 6.91701 153.263 5.50108C151.899 4.07558 150.244 3.36762 148.306 3.36762C146.369 3.36762 144.713 4.07558 143.331 5.50108ZM117.946 10.6864C117.946 12.6573 118.642 14.3411 120.034 15.7283C121.426 17.1155 123.09 17.8044 125.028 17.8044H129.185C129.185 17.0199 128.912 16.3502 128.357 15.7953C127.802 15.2404 127.144 14.9629 126.373 14.9629H125.018C123.862 14.9629 122.883 14.542 122.084 13.7001C121.285 12.8582 120.88 11.8536 120.88 10.6769V2.9945C120.88 2.17173 120.589 1.47333 120.015 0.880172C119.432 0.287013 118.745 0 117.936 0V10.696L117.946 10.6864Z" fill="#8B2331"/>
<path d="M155.33 23.8814C155.33 23.8814 155.254 23.9388 156.195 23.9579C156.91 23.9675 158.001 23.7188 158.001 23.7188V28.2823C158.001 28.2823 156.863 28.598 155.79 26.5123C155.348 25.6609 155.33 23.8814 155.33 23.8814Z" fill="#A39161"/>
<path d="M22.0179 33.8505H28.2912C28.3664 33.5156 28.4041 33.1616 28.4041 32.7981V30.8273H24.9899C24.1717 30.8273 23.4757 31.1239 22.8925 31.717C22.3094 32.3102 22.0179 33.0277 22.0179 33.8505ZM9.02911 14.5824V8.82296C9.02911 8.45941 9.06673 8.10543 9.14197 7.77058C9.31127 7.02435 9.68748 6.34509 10.2424 5.75193C11.0513 4.89089 12.0482 4.46994 13.2145 4.46994C13.2991 4.46994 13.3744 4.46994 13.459 4.46994C14.5218 4.52734 15.4247 4.94829 16.1772 5.75193C16.986 6.61297 17.3904 7.62708 17.3904 8.8134V15.3764C17.3904 15.4721 17.3904 15.5582 17.3998 15.6443C17.4563 16.3618 17.7384 16.9837 18.2651 17.5099C18.8483 18.103 19.5443 18.3996 20.3625 18.3996V8.8134C20.3625 7.62708 20.7669 6.6034 21.5852 5.75193C22.3941 4.89089 23.391 4.46994 24.5573 4.46994C24.5761 4.46994 24.5855 4.46994 24.6043 4.46994C25.7518 4.4795 26.7299 4.91002 27.52 5.75193C27.9902 6.25898 28.3288 6.81387 28.5263 7.43573H31.5737C31.3197 6.0198 30.6707 4.77608 29.6079 3.71414C28.2254 2.31734 26.5512 1.61894 24.6043 1.60938C24.5855 1.60938 24.5761 1.60938 24.5573 1.60938C23.4569 1.60938 22.4129 1.85812 21.4159 2.36518C20.4095 2.87223 19.5725 3.56106 18.9047 4.43167C18.2087 3.54193 17.3622 2.8531 16.3747 2.35561C15.4529 1.89639 14.4842 1.64764 13.4684 1.61894C13.3838 1.61894 13.3085 1.61894 13.2239 1.61894C11.2676 1.61894 9.58402 2.31734 8.17322 3.73327C7.00696 4.90046 6.32038 6.26855 6.12286 7.83755C6.08524 8.16283 6.05703 8.48811 6.05703 8.83253V17.6151C6.88469 17.6151 7.58069 17.3185 8.16382 16.7349C8.73754 16.1418 9.02911 15.4338 9.02911 14.5919M16.5251 19.2989H14.2773V22.236C14.7946 22.1117 15.2554 21.8438 15.6505 21.4324C16.2336 20.8392 16.5251 20.1313 16.5251 19.2989ZM21.2372 22.3221H23.8613V19.3181C23.1935 19.3946 22.6104 19.6816 22.1119 20.1887C21.5288 20.7818 21.2372 21.4898 21.2372 22.3221ZM15.7351 7.77058H9.46175C9.38651 8.10543 9.34889 8.45941 9.34889 8.82296V10.7938H12.763C13.5813 10.7938 14.2773 10.4972 14.8604 9.90405C15.4435 9.31088 15.7351 8.60292 15.7351 7.78015M34.9784 20.8392C35.8531 20.1313 36.5303 19.2798 37.0193 18.2657C37.5084 17.2611 37.753 16.1896 37.753 15.0607C37.753 14.9268 37.753 14.7928 37.7436 14.6589C37.6589 12.8411 36.9723 11.2626 35.6744 9.93275C34.5269 8.74643 33.182 8.04803 31.6395 7.84712C31.3197 7.80885 30.9999 7.78015 30.6613 7.78015H22.0273C22.0273 8.62205 22.3188 9.33002 22.8925 9.92318C23.4663 10.5068 24.1717 10.8034 24.9993 10.8034H30.6613C31.0187 10.8034 31.3667 10.8416 31.6959 10.9182C32.4295 11.0904 33.0973 11.4635 33.6805 12.0375C34.4235 12.7742 34.8373 13.6448 34.9314 14.6493C34.9408 14.7833 34.9502 14.9172 34.9502 15.0511C34.9502 16.2375 34.5269 17.242 33.6899 18.0648C32.8434 18.8875 31.8464 19.2989 30.6707 19.2989H27.4259V22.3221H30.6707C31.837 22.3221 32.8434 22.7335 33.6899 23.5659C34.5363 24.3886 34.9502 25.4027 34.9502 26.5891C34.9502 26.6369 34.9502 26.6847 34.9502 26.7326C34.9125 27.8615 34.4987 28.8182 33.6899 29.6027C33.1914 30.0906 32.6459 30.4255 32.0345 30.6264V33.7261C33.4265 33.4678 34.6492 32.8077 35.6932 31.7266C37.0382 30.3394 37.7247 28.6747 37.7624 26.7326C37.7624 26.6847 37.7624 26.6369 37.7624 26.5891C37.7624 25.4793 37.5178 24.4078 37.0193 23.3936C36.5303 22.37 35.8437 21.5185 34.9878 20.8392M31.7053 11.2339C31.3761 11.1573 31.0282 11.1191 30.6707 11.1191H28.7333V14.6015C28.7333 15.4243 29.0248 16.1418 29.6079 16.7349C30.1911 17.3281 30.8871 17.6247 31.7053 17.6247V11.2434V11.2339ZM28.7333 27.0387V32.7981C28.7333 33.1616 28.6956 33.5156 28.6204 33.8505C28.4511 34.5967 28.0843 35.276 27.52 35.8596C26.7675 36.6536 25.8552 37.0842 24.7924 37.1416C24.7078 37.1416 24.6325 37.1416 24.5479 37.1416C23.3816 37.1416 22.3941 36.711 21.5852 35.8596C20.7764 34.9985 20.3719 33.9844 20.3719 32.7981V26.2255C20.3719 26.1585 20.3719 26.1011 20.3719 26.0437C20.3343 25.2975 20.0427 24.6469 19.5066 24.092C18.9235 23.4989 18.2275 23.2023 17.4092 23.2023V32.7885C17.4092 33.9749 17.0048 34.9985 16.1866 35.85C15.3777 36.7015 14.3901 37.132 13.2333 37.132H13.2145C12.0482 37.132 11.0607 36.7015 10.2518 35.85C9.76272 35.3334 9.42413 34.7689 9.23602 34.1375H6.1887C6.43324 35.563 7.09161 36.8163 8.16382 37.8974C9.56521 39.2942 11.2394 40.0021 13.2145 40.0021H13.2333C14.3243 40.0021 15.3683 39.7438 16.3653 39.2463C17.3622 38.7393 18.2087 38.0504 18.8765 37.1798C19.5725 38.0696 20.4095 38.7584 21.4065 39.2559C22.3941 39.7534 23.4475 40.0021 24.5573 40.0021C24.6419 40.0021 24.7172 40.0021 24.8018 40.0021C26.6547 39.9447 28.2536 39.2463 29.5985 37.8974C30.7648 36.7302 31.4514 35.3621 31.6489 33.7931C31.6865 33.4678 31.7147 33.1425 31.7147 32.7981V24.0155C30.8871 24.0155 30.1911 24.3121 29.6079 24.8957C29.0342 25.4888 28.7427 26.1968 28.7427 27.0387M6.07584 30.3968C6.40502 30.4733 6.75302 30.5116 7.11042 30.5116H9.04792V27.0291C9.04792 26.1968 8.75635 25.4888 8.17322 24.8957C7.59009 24.3025 6.8941 24.0059 6.07584 24.0059V30.3872V30.3968ZM15.7539 33.8505C15.7539 33.0086 15.4623 32.3006 14.8886 31.7074C14.3055 31.1239 13.6095 30.8273 12.7818 30.8273H7.11983C6.76243 30.8273 6.41443 30.789 6.08524 30.7125C5.35163 30.5307 4.68385 30.1576 4.11013 29.5931C3.26365 28.7704 2.84981 27.7562 2.84981 26.5699C2.84981 26.5412 2.84981 26.5125 2.84981 26.4838C2.86862 25.3262 3.29186 24.3504 4.11013 23.5563C4.9472 22.7335 5.95357 22.3221 7.11983 22.3221H10.6844V19.2989H7.11983C5.95357 19.2989 4.9472 18.8875 4.11013 18.0648C3.26365 17.2324 2.84981 16.2279 2.84981 15.0416V15.0224C2.84981 13.8457 3.27305 12.8411 4.11013 12.0279C4.69325 11.4539 5.04125 11.0904 5.77487 10.9086V8.82296C5.77487 8.48812 5.79368 8.15327 5.8407 7.82799C4.28883 8.02889 3.25424 8.71773 2.10679 9.89448C0.695994 11.32 0 13.0229 0 15.0224V15.0416C0 16.1609 0.244538 17.2229 0.74302 18.237C1.2415 19.2607 1.91869 20.1121 2.77457 20.7914C1.89987 21.4994 1.22269 22.3604 0.733615 23.3649C0.253944 24.3408 0.0188106 25.374 0 26.4743C0 26.4934 0 26.5317 0 26.5604C0 28.5503 0.695994 30.2628 2.07858 31.6979C3.22602 32.8842 4.57099 33.5826 6.11346 33.7835C6.43324 33.8218 6.75302 33.8505 7.09161 33.8505H15.7257H15.7539Z" fill="#A39161"/>
<path d="M17.0916 15.6543C17.0916 15.5682 17.0822 12.6406 17.0822 12.6406H10.9688V29.0482H17.0728V26.0346H13.922V15.6447H17.0822L17.0916 15.6543ZM20.675 12.6406V15.6543H24.1456V26.0441H20.6656V29.0578H27.0989V12.6406H20.6656H20.675Z" fill="#8B2331"/>
<path d="M84.0263 25.0377C84.3273 25.0377 84.553 24.7985 84.553 24.5115C84.553 24.2053 84.3273 23.9757 84.0263 23.9757C83.7442 23.9757 83.509 24.2149 83.509 24.5019C83.509 24.8176 83.7442 25.0377 84.0263 25.0377ZM89.5002 25.0377C89.8012 25.0377 90.0269 24.7985 90.0269 24.5115C90.0269 24.2053 89.7918 23.9757 89.5002 23.9757C89.2087 23.9757 88.9735 24.2149 88.9735 24.5019C88.9735 24.8176 89.2181 25.0377 89.5002 25.0377ZM62.8643 24.8272C63.1653 24.8272 63.3816 24.5689 63.3816 24.301C63.3816 23.9757 63.1465 23.7461 62.8643 23.7461C62.5634 23.7461 62.3377 24.0044 62.3377 24.2819C62.3377 24.588 62.554 24.8272 62.8643 24.8272ZM88.127 25.0377C88.428 25.0377 88.6538 24.7985 88.6538 24.5115C88.6538 24.2053 88.4092 23.9757 88.127 23.9757C87.8449 23.9757 87.6004 24.2149 87.6004 24.5019C87.6004 24.8176 87.8449 25.0377 88.127 25.0377ZM85.3995 25.0377C85.7005 25.0377 85.9262 24.7985 85.9262 24.5115C85.9262 24.2053 85.7005 23.9757 85.3995 23.9757C85.1174 23.9757 84.8822 24.2149 84.8822 24.5019C84.8822 24.8176 85.1174 25.0377 85.3995 25.0377ZM56.3747 25.0377C56.6756 25.0377 56.9014 24.7985 56.9014 24.5115C56.9014 24.2053 56.6568 23.9757 56.3747 23.9757C56.0925 23.9757 55.8574 24.2149 55.8574 24.5019C55.8574 24.8176 56.1019 25.0377 56.3747 25.0377ZM102.113 25.0377C102.395 25.0377 102.63 24.7985 102.63 24.5115C102.63 24.2053 102.395 23.9757 102.113 23.9757C101.812 23.9757 101.586 24.2149 101.586 24.5019C101.586 24.8176 101.812 25.0377 102.113 25.0377ZM146.656 25.0377C146.957 25.0377 147.183 24.7985 147.183 24.5115C147.183 24.2053 146.939 23.9757 146.656 23.9757C146.374 23.9757 146.13 24.2149 146.13 24.5019C146.13 24.8176 146.374 25.0377 146.656 25.0377ZM147.503 24.5019C147.503 24.8176 147.757 25.0377 148.03 25.0377C148.331 25.0377 148.566 24.7985 148.566 24.5115C148.566 24.2053 148.321 23.9757 148.03 23.9757C147.738 23.9757 147.503 24.2149 147.503 24.5019ZM132.896 24.8272C133.197 24.8272 133.414 24.5689 133.414 24.301C133.414 23.9757 133.169 23.7461 132.896 23.7461C132.595 23.7461 132.36 24.0044 132.36 24.2819C132.36 24.588 132.595 24.8272 132.896 24.8272ZM147.334 23.6887C147.635 23.6887 147.851 23.44 147.851 23.1625C147.851 22.8564 147.625 22.6172 147.334 22.6172C147.042 22.6172 146.816 22.8755 146.816 23.1625C146.816 23.4495 147.051 23.6887 147.334 23.6887ZM103.486 25.0377C103.759 25.0377 104.003 24.7985 104.003 24.5115C104.003 24.2053 103.768 23.9757 103.486 23.9757C103.185 23.9757 102.95 24.2149 102.95 24.5019C102.95 24.8176 103.185 25.0377 103.486 25.0377ZM116.371 25.0377C116.672 25.0377 116.898 24.7985 116.898 24.5115C116.898 24.2053 116.644 23.9757 116.371 23.9757C116.098 23.9757 115.835 24.2149 115.835 24.5019C115.835 24.8176 116.089 25.0377 116.371 25.0377ZM131.523 24.8272C131.824 24.8272 132.041 24.5689 132.041 24.301C132.041 23.9757 131.815 23.7461 131.523 23.7461C131.222 23.7461 130.997 24.0044 130.997 24.2819C130.997 24.588 131.222 24.8272 131.523 24.8272ZM64.2375 24.8272C64.5385 24.8272 64.7548 24.5689 64.7548 24.301C64.7548 23.9757 64.5197 23.7461 64.2375 23.7461C63.9366 23.7461 63.7108 24.0044 63.7108 24.2819C63.7108 24.588 63.946 24.8272 64.2375 24.8272ZM55.0015 25.0377C55.3025 25.0377 55.5376 24.7985 55.5376 24.5115C55.5376 24.2053 55.2931 23.9757 55.0015 23.9757C54.7099 23.9757 54.4748 24.2149 54.4748 24.5019C54.4748 24.8176 54.7287 25.0377 55.0015 25.0377ZM94.1277 25.3821V28.501L92.1525 25.0377H91.0145L91.8516 26.0518L93.4505 28.8262H91.654L91.2872 29.6107H93.7326C94.1277 29.6107 94.438 29.4864 94.6638 29.2185C94.8801 28.9793 94.9929 28.6732 94.9929 28.3096V23.9853L93.9395 24.2245L94.1465 25.3916L94.1277 25.3821ZM96.0651 25.1333V29.6107H96.9116V25.1333L97.0057 23.9757L95.9335 24.0618L96.0651 25.1429V25.1333ZM125.175 25.3247V28.0991C125.175 28.5775 124.968 28.8167 124.544 28.8167H122.955C122.532 28.8167 122.325 28.5871 122.325 28.1278V27.3433L122.428 26.4345C122.014 26.3005 121.61 26.2335 121.187 26.2335C119.879 26.2335 119.08 26.9894 119.042 28.2426C119.033 28.6349 118.835 28.8262 118.45 28.8262H117.603C117.18 28.8262 116.973 28.5966 116.973 28.1374V25.9178L115.948 26.157L116.117 27.2955V28.147C116.117 28.6062 115.91 28.8358 115.487 28.8358H114.462C114.048 28.8358 113.841 28.5966 113.841 28.1183V23.9948L112.835 24.234L112.976 25.3534V28.3287C112.976 29.1419 113.465 29.6299 114.255 29.6299H115.703C116.033 29.6299 116.305 29.5438 116.531 29.3716C116.738 29.5438 117.03 29.6299 117.368 29.6299H118.666C118.911 29.6299 119.127 29.582 119.315 29.4768C119.569 29.8977 119.936 30.1274 120.416 30.1274C121.008 30.1274 121.516 29.869 121.939 29.362C122.165 29.5438 122.438 29.6299 122.757 29.6299H124.751C125.541 29.6299 126.031 29.1419 126.031 28.3287V23.947L125.034 24.1958L125.175 25.3534V25.3247ZM121.478 28.9889C121.224 29.2472 120.952 29.3811 120.651 29.3811C120.237 29.3811 119.926 28.9506 119.926 28.2044C119.926 27.2859 120.284 26.8363 120.999 26.8363C121.14 26.8363 121.281 26.8554 121.412 26.9032L121.478 27.3912V28.9889ZM127.112 25.1333V29.6107H127.959V25.1333L128.053 23.9757L126.98 24.0618L127.112 25.1429V25.1333ZM149.064 26.1474L149.215 27.2859V28.147C149.215 28.6062 149.008 28.8358 148.603 28.8358C148.331 28.8358 148.077 28.7306 147.86 28.5105V26.2527L147.023 26.444V28.147C147.023 28.6062 146.816 28.8358 146.412 28.8358C146.111 28.8358 145.866 28.7306 145.65 28.5297V26.2527L144.804 26.444L144.785 28.1278C144.785 28.5871 144.578 28.8167 144.173 28.8167H143.139C142.716 28.8167 142.509 28.5679 142.509 28.0896V25.9083L141.483 26.1474L141.653 27.3146V29.5151C141.653 30.3857 141.267 30.9501 140.468 31.1989L140.656 31.5433C141.784 31.2276 142.396 30.5674 142.499 29.5533C142.631 29.5916 142.781 29.6107 142.932 29.6107H144.371C144.757 29.6107 145.067 29.4959 145.293 29.2759C145.349 29.2185 145.415 29.1515 145.452 29.0845C145.782 29.429 146.177 29.6107 146.619 29.6107C147.061 29.6107 147.428 29.4481 147.653 29.1132C147.973 29.4481 148.359 29.6107 148.81 29.6107C149.563 29.6107 150.061 29.1132 150.061 28.3479V25.9178L149.045 26.157L149.064 26.1474ZM138.116 25.7839H136.517L137.279 24.9994L138.502 23.9757H137.279C136.724 24.655 135.934 25.516 134.9 26.5397H137.928C138.897 26.5397 139.377 26.8745 139.377 27.5442V28.8262H134.157C133.743 28.8262 133.527 28.5871 133.527 28.1183V25.1907C133.207 25.2481 132.868 25.3247 132.492 25.4299L132.548 25.8222H132.276C131.674 25.8222 131.185 25.9944 130.808 26.3484C130.442 26.6928 130.263 27.1424 130.263 27.7069C130.263 28.7593 130.818 29.4194 131.74 29.4194C132.172 29.4194 132.548 29.3333 132.849 29.1706C133.122 29.4672 133.489 29.6107 133.94 29.6107H140.223V27.4007C140.223 26.3962 139.452 25.7935 138.107 25.7935M132.689 28.5871C132.445 28.6636 132.2 28.6923 131.937 28.6923C131.41 28.6923 131.147 28.3096 131.138 27.5442C131.138 27.2285 131.241 26.9511 131.457 26.731C131.674 26.511 131.928 26.4058 132.229 26.3962C132.37 26.3962 132.53 26.3962 132.689 26.3771V28.5775V28.5871ZM111.292 26.3197C110.907 26.0326 110.418 25.8891 109.816 25.8891C109.261 25.8891 108.687 26.1379 108.104 26.6354C107.615 27.0276 107.248 27.4677 106.994 27.9365V25.4012L107.088 24.2532L106.016 24.3488L106.148 25.4203V28.8358H104.126V25.9274H102.865C102.254 25.9274 101.774 26.1092 101.407 26.4727C101.041 26.8363 100.862 27.3338 100.862 27.9461C100.862 29.008 101.511 29.6203 102.414 29.6203H103.26C103.194 30.5387 102.762 30.9884 101.925 30.9884C101.36 30.9884 100.909 30.8066 100.589 30.4718C100.222 30.0891 100.034 29.5055 100.034 28.7401V27.9652H99.1971V28.7688C99.1971 30.5292 100.138 31.5529 101.849 31.5529C102.545 31.5529 103.091 31.3615 103.486 31.0075C103.862 30.6727 104.069 30.2135 104.116 29.6299H111.866V27.506C111.866 27.0085 111.669 26.6258 111.283 26.3388M103.251 28.8454H102.527C101.981 28.8454 101.718 28.4914 101.718 27.8026C101.718 26.9511 102.075 26.5206 102.799 26.5206H103.251V28.8358V28.8454ZM111.001 28.8454H107.004C107.135 28.4722 107.455 28.0417 107.972 27.5442C108.584 26.9511 109.129 26.6545 109.618 26.6545C110.54 26.6545 111.001 26.9893 111.001 27.6495V28.8454ZM60.6447 27.7069L60.513 27.4007C60.1932 27.4964 59.9299 27.659 59.7136 27.9078C59.5067 28.1661 59.3938 28.434 59.3844 28.721C59.3468 29.2855 59.6289 29.6299 60.0333 29.6299C60.3908 29.6299 60.5695 29.4481 60.5695 29.0845C60.5695 28.721 60.3907 28.5392 60.0239 28.5201C59.9957 28.4722 59.9863 28.4148 59.9863 28.3574C59.9863 28.0513 60.3061 27.7834 60.6447 27.7069ZM55.6975 25.6308C55.3495 25.6308 55.0485 25.7265 54.7852 25.9083C54.4278 26.1666 54.2491 26.5397 54.2491 27.0372C54.2491 27.9556 54.7287 28.4148 55.6881 28.4148C55.9326 28.4148 56.1207 28.3766 56.2524 28.3096C56.196 28.6636 55.8856 28.8358 55.3025 28.8358H52.8289V27.4964C52.8289 26.9989 52.6314 26.6162 52.2457 26.3292C51.8601 26.0422 51.371 25.8987 50.7691 25.8987C50.2142 25.8987 49.6405 26.1474 49.0573 26.6449C48.5683 27.0372 48.2014 27.4773 47.9475 27.9461V25.4108L48.0416 24.2627L46.9693 24.3584L47.101 25.4299V28.8454H45.5774C45.1541 28.8454 44.9472 28.5966 44.9472 28.1183V25.937L43.922 26.1761L44.0913 27.3433V29.5438C44.1007 30.4144 43.7057 30.9788 42.9062 31.2276L43.0944 31.572C44.223 31.2563 44.8249 30.5961 44.9284 29.582C45.0601 29.6203 45.2011 29.6394 45.361 29.6394H55.2178C56.5346 29.6394 57.1365 28.9984 57.1365 27.4294V27.0181C57.1365 26.6162 57.0142 26.291 56.7791 26.0518C56.5158 25.7743 56.1395 25.65 55.6599 25.65M51.9354 28.8645H47.9381C48.0698 28.4914 48.399 28.0609 48.8974 27.5634C49.5088 26.9702 50.0543 26.6736 50.5528 26.6736C51.4745 26.6736 51.9354 27.0085 51.9354 27.6686V28.8645ZM56.2806 27.7547C56.1019 27.8408 55.8762 27.8791 55.6222 27.8791C55.2554 27.8791 55.0673 27.6303 55.0673 27.1137C55.0673 26.4919 55.2743 26.1761 55.6881 26.1761C56.1019 26.1761 56.2994 26.4632 56.2994 27.0372C56.2994 27.3146 56.2994 27.5442 56.29 27.7452M66.2032 30.51C65.9305 30.51 65.6765 30.7492 65.6765 31.0362C65.6765 31.3519 65.9211 31.572 66.2032 31.572C66.5042 31.572 66.7393 31.3137 66.7393 31.0458C66.7393 30.7397 66.4854 30.51 66.2032 30.51ZM67.4918 27.2955V28.1565C67.4918 28.6158 67.2848 28.8454 66.8616 28.8454H65.4508C65.0276 28.8454 64.8207 28.6062 64.8207 28.1374V25.2099C64.5009 25.2673 64.1529 25.3438 63.7861 25.449L63.8331 25.8413H63.5603C62.9584 25.8413 62.4693 26.0135 62.0931 26.3675C61.7263 26.7119 61.5476 27.1616 61.5476 27.726C61.5476 28.7784 62.1025 29.4385 63.0242 29.4385C63.4663 29.4385 63.8331 29.3524 64.1341 29.1898C64.4068 29.4864 64.7736 29.6299 65.2251 29.6299H67.0591C67.8398 29.6299 68.3288 29.1419 68.3288 28.367V25.9465L67.3319 26.1761L67.4824 27.2955H67.4918ZM63.9836 28.6158C63.739 28.6923 63.4945 28.721 63.2312 28.721C62.7045 28.721 62.4411 28.3383 62.4317 27.5729C62.4317 27.2572 62.5352 26.9798 62.7515 26.7597C62.9678 26.5397 63.2218 26.4345 63.5133 26.4249C63.6544 26.4249 63.8143 26.4249 63.9742 26.4058V28.6062L63.9836 28.6158ZM72.5424 27.8982C72.533 27.3338 72.3731 26.865 72.0534 26.5014C71.7336 26.1283 71.3103 25.937 70.7836 25.937C70.6426 25.9657 70.5485 25.9752 70.5203 25.9752C70.5485 26.2144 70.5673 26.3771 70.5673 26.4727C70.6614 26.4249 70.7554 26.4153 70.8307 26.4153C71.0846 26.4153 71.2821 26.5301 71.4326 26.7502C71.5925 26.9989 71.6865 27.3338 71.6865 27.7643V28.6827L71.6583 28.8645H69.4857L69.26 29.649H72.6741L72.5424 28.8549V27.9174V27.8982ZM88.7854 25.6404C88.4374 25.6404 88.1271 25.7361 87.8731 25.9178C87.5251 26.1761 87.3464 26.5493 87.3464 27.0468C87.3464 27.9652 87.8261 28.4244 88.7948 28.4244C89.0394 28.4244 89.2275 28.3861 89.3591 28.3192C89.3027 28.6732 88.9923 28.8454 88.4092 28.8454H86.3024C85.8886 28.8454 85.6817 28.6158 85.6817 28.1565V25.937L84.6565 26.1761L84.8352 27.3146V28.1661C84.8352 28.6253 84.6189 28.8549 84.1956 28.8549H82.8695V27.5729C82.8695 27.0755 82.672 26.6928 82.2863 26.4153C81.9007 26.1283 81.4022 25.9848 80.7909 25.9848C79.6811 25.9848 78.6653 26.7215 77.7342 28.1948V26.2814L76.8877 26.4727L76.8689 28.1565C76.8689 28.6158 76.662 28.8454 76.2481 28.8454H75.2323C74.8185 28.8454 74.6116 28.6062 74.6116 28.1278V24.0044L73.6052 24.2436L73.7463 25.3629V28.3383C73.7463 29.1515 74.2354 29.6394 75.016 29.6394H84.4119C84.7317 29.6394 85.0045 29.5533 85.2396 29.3811C85.4559 29.5533 85.7381 29.6394 86.0767 29.6394H88.3152C89.6319 29.6394 90.2432 28.9984 90.2432 27.4294V27.0181C90.2432 26.6162 90.121 26.291 89.8764 26.0518C89.6037 25.7743 89.2369 25.65 88.7572 25.65M81.9948 28.8645H78.1104C78.2421 28.501 78.5336 28.08 78.9757 27.6208C79.5306 27.0276 80.0761 26.731 80.5934 26.731C81.5245 26.731 82.0042 27.0659 82.0042 27.726V28.8645H81.9948ZM89.3874 27.7547C89.2087 27.8408 88.9829 27.8791 88.7196 27.8791C88.3528 27.8791 88.1553 27.6303 88.1553 27.1137C88.1553 26.4919 88.3622 26.1761 88.776 26.1761C89.1899 26.1761 89.3874 26.4632 89.3874 27.0372C89.3874 27.3146 89.3874 27.5442 89.3874 27.7452M67.5482 30.51C67.266 30.51 67.0121 30.7492 67.0121 31.0362C67.0121 31.3519 67.266 31.572 67.5482 31.572C67.8492 31.572 68.0749 31.3137 68.0749 31.0458C68.0749 30.7397 67.821 30.51 67.5482 30.51Z" fill="black"/>
<path d="M43.875 34.7031H46.3768V35.1815H44.4675V36.5496H46.2734V37.0375H44.4675V38.6065H46.4615V39.0849H43.875V34.7031Z" fill="black"/>
<path d="M50.5317 37.5752C50.4753 38.3979 50.1179 39.1633 49.0551 39.1633C47.6725 39.1633 47.4844 37.9866 47.4844 36.8863C47.4844 35.7861 47.7101 34.6094 49.0551 34.6094C50.0426 34.6094 50.4565 35.1164 50.4847 35.9775H49.8545C49.8451 35.48 49.6664 35.059 49.0457 35.059C48.218 35.059 48.1051 35.8818 48.1051 36.8959C48.1051 37.91 48.2086 38.7328 49.0457 38.7328C49.7699 38.7328 49.8733 38.1205 49.8921 37.5847H50.5223L50.5317 37.5752Z" fill="black"/>
<path d="M54.6929 36.8863C54.6929 37.9866 54.4672 39.1633 53.1316 39.1633C51.796 39.1633 51.5703 37.9866 51.5703 36.8863C51.5703 35.7861 51.796 34.6094 53.1316 34.6094C54.4672 34.6094 54.6929 35.7766 54.6929 36.8863ZM52.1911 36.8863C52.1911 37.9005 52.3039 38.7232 53.1316 38.7232C53.9593 38.7232 54.0721 37.9005 54.0721 36.8863C54.0721 35.8722 53.9593 35.0495 53.1316 35.0495C52.3039 35.0495 52.1911 35.8722 52.1911 36.8863Z" fill="black"/>
<path d="M55.9531 34.7031H56.7244L58.3327 38.3578H58.3515V34.7031H58.944V39.0849H58.1258L56.5645 35.5355H56.5551V39.0849H55.9531V34.7031Z" fill="black"/>
<path d="M63.3335 36.8863C63.3335 37.9866 63.1078 39.1633 61.7722 39.1633C60.4367 39.1633 60.2109 37.9866 60.2109 36.8863C60.2109 35.7861 60.4273 34.6094 61.7722 34.6094C63.1172 34.6094 63.3335 35.7766 63.3335 36.8863ZM60.8317 36.8863C60.8317 37.9005 60.9446 38.7232 61.7722 38.7232C62.5999 38.7232 62.7128 37.9005 62.7128 36.8863C62.7128 35.8722 62.6093 35.0495 61.7722 35.0495C60.9352 35.0495 60.8317 35.8722 60.8317 36.8863Z" fill="black"/>
<path d="M64.6094 34.7031H65.6157L66.5939 38.176H66.6033L67.572 34.7031H68.5784V39.0849H67.9859V35.258H67.9671L66.8949 39.0849H66.2929L65.2207 35.258H65.2113V39.0849H64.6094V34.7031Z" fill="black"/>
<path d="M70.5238 34.7031H69.9219V39.0849H70.5238V34.7031Z" fill="black"/>
<path d="M74.8192 37.5752C74.7627 38.3979 74.4053 39.1633 73.3425 39.1633C71.96 39.1633 71.7812 37.9866 71.7812 36.8863C71.7812 35.7861 72.007 34.6094 73.3425 34.6094C74.3301 34.6094 74.7533 35.1164 74.7721 35.9775H74.1514C74.142 35.48 73.9633 35.059 73.3425 35.059C72.5149 35.059 72.402 35.8818 72.402 36.8959C72.402 37.91 72.5149 38.7328 73.3425 38.7328C74.0667 38.7328 74.1702 38.1205 74.189 37.5847H74.8192V37.5752Z" fill="black"/>
<path d="M77.8594 38.6352L80.0414 35.1815H77.9816V34.7031H80.6622V35.2006L78.4801 38.6065H80.6904V39.0849H77.8594V38.6352Z" fill="black"/>
<path d="M84.8507 36.8863C84.8507 37.9866 84.625 39.1633 83.28 39.1633C81.9351 39.1633 81.7188 37.9866 81.7188 36.8863C81.7188 35.7861 81.9445 34.6094 83.28 34.6094C84.6156 34.6094 84.8507 35.7766 84.8507 36.8863ZM82.3489 36.8863C82.3489 37.9005 82.4618 38.7232 83.2894 38.7232C84.1171 38.7232 84.23 37.9005 84.23 36.8863C84.23 35.8722 84.1171 35.0495 83.2894 35.0495C82.4618 35.0495 82.3489 35.8722 82.3489 36.8863Z" fill="black"/>
<path d="M86.1094 34.7031H86.8806L88.4889 38.3578H88.4983V34.7031H89.1003V39.0849H88.2726L86.7207 35.5355H86.7019V39.0849H86.1094V34.7031Z" fill="black"/>
<path d="M90.4219 34.7031H92.9331V35.1815H91.0144V36.5496H92.8202V37.0375H91.0144V38.6065H93.0083V39.0849H90.4219V34.7031Z" fill="black"/>
<path d="M96.1697 35.8279C96.1697 35.3783 95.9816 35.053 95.4079 35.053C94.9094 35.053 94.6085 35.3017 94.6085 35.7609C94.6085 36.9951 96.894 36.2584 96.894 37.8561C96.894 38.8702 96.0757 39.1573 95.3891 39.1573C94.2511 39.1573 93.9219 38.6311 93.9219 37.6935H94.5238C94.5238 38.1814 94.5614 38.7076 95.4361 38.7076C95.9158 38.7076 96.2826 38.4015 96.2826 37.9327C96.2826 36.6889 93.9877 37.416 93.9877 35.7992C93.9877 35.3878 94.1758 34.5938 95.4079 34.5938C96.339 34.5938 96.7529 35.0147 96.7717 35.8088H96.1792L96.1697 35.8279Z" fill="black"/>
<path d="M103.196 37.5752C103.139 38.3979 102.782 39.1633 101.719 39.1633C100.337 39.1633 100.148 37.9866 100.148 36.8863C100.148 35.7861 100.374 34.6094 101.719 34.6094C102.707 34.6094 103.121 35.1164 103.149 35.9775H102.528C102.509 35.48 102.34 35.059 101.719 35.059C100.882 35.059 100.779 35.8818 100.779 36.8959C100.779 37.91 100.882 38.7328 101.719 38.7328C102.443 38.7328 102.547 38.1205 102.566 37.5847H103.186L103.196 37.5752Z" fill="black"/>
<path d="M107.357 36.8863C107.357 37.9866 107.131 39.1633 105.796 39.1633C104.46 39.1633 104.234 37.9866 104.234 36.8863C104.234 35.7861 104.46 34.6094 105.796 34.6094C107.131 34.6094 107.357 35.7766 107.357 36.8863ZM104.855 36.8863C104.855 37.9005 104.959 38.7232 105.796 38.7232C106.633 38.7232 106.736 37.9005 106.736 36.8863C106.736 35.8722 106.623 35.0495 105.796 35.0495C104.968 35.0495 104.855 35.8722 104.855 36.8863Z" fill="black"/>
<path d="M108.633 34.7031H109.639L110.608 38.176H110.627L111.595 34.7031H112.602V39.0849H112V35.258H111.991L110.918 39.0849H110.316L109.244 35.258H109.225V39.0849H108.633V34.7031Z" fill="black"/>
<path d="M113.945 34.7031H115.187C115.61 34.7031 116.692 34.7031 116.692 35.966C116.692 36.7792 116.118 37.2384 115.29 37.2384H114.547V39.0944H113.945V34.7127V34.7031ZM114.547 36.7888H115.262C115.695 36.7888 116.071 36.5209 116.071 35.9373C116.071 35.4589 115.817 35.1432 115.224 35.1432H114.547V36.7888Z" fill="black"/>
<path d="M118.448 34.7031H119.248L120.555 39.0849H119.934L119.586 37.8794H118.034L117.677 39.0849H117.047L118.448 34.7031ZM118.157 37.4393H119.464L118.843 35.325H118.834L118.157 37.4393Z" fill="black"/>
<path d="M121.438 34.7031H122.218L123.817 38.3578H123.836V34.7031H124.428V39.0849H123.61L122.049 35.5355H122.039V39.0849H121.438V34.7031Z" fill="black"/>
<path d="M125.359 34.7031H126.018L126.949 36.7505L127.899 34.7031H128.529L127.24 37.3628V39.0849H126.648V37.3628L125.359 34.7031Z" fill="black"/>
<path d="M128.797 38.4297H129.427V38.9654C129.427 39.4342 129.389 39.8456 128.797 39.9891V39.7021C129.041 39.5969 129.098 39.4725 129.098 39.2333V39.0898H128.797V38.4393V38.4297Z" fill="black"/>
<path d="M134.492 38.9433C134.285 39.0868 134.003 39.1633 133.655 39.1633C132.319 39.1633 132.094 37.9866 132.094 36.8863C132.094 35.7861 132.319 34.6094 133.655 34.6094C134.991 34.6094 135.216 35.7766 135.216 36.8863C135.216 37.5178 135.141 38.1779 134.821 38.618L135.31 39.0294L134.972 39.3451L134.483 38.9433H134.492ZM133.627 38.2353L133.956 37.9005L134.407 38.264C134.558 37.9387 134.596 37.4412 134.596 36.8768C134.596 35.8627 134.483 35.0399 133.655 35.0399C132.827 35.0399 132.715 35.8627 132.715 36.8768C132.715 37.8909 132.818 38.7137 133.655 38.7137C133.834 38.7137 133.984 38.6754 134.097 38.6084L133.627 38.2257V38.2353Z" fill="black"/>
<path d="M137.417 34.7031H138.216L139.524 39.0849H138.894L138.546 37.8794H136.994L136.636 39.0849H136.016L137.417 34.7031ZM137.125 37.4393H138.433L137.812 35.325H137.803L137.125 37.4393Z" fill="black"/>
<path d="M141.511 39.0849H140.918V35.1815H139.695V34.7031H142.743V35.1815H141.511V39.0849Z" fill="black"/>
<path d="M144.317 34.7031H145.116L146.424 39.0849H145.803L145.455 37.8794H143.903L143.536 39.0849H142.906L144.308 34.7031H144.317ZM144.025 37.4393H145.323L144.712 35.325H144.693L144.025 37.4393Z" fill="black"/>
<path d="M147.3 34.7031H148.871C149.633 34.7031 150.112 35.1145 150.112 35.8033C150.112 36.2817 149.924 36.7888 149.36 36.9036C149.783 36.961 150.028 37.2767 150.046 37.6498L150.084 38.396C150.112 38.8744 150.197 38.9987 150.338 39.0849H149.623C149.52 38.9892 149.473 38.6735 149.463 38.4534L149.416 37.7742C149.369 37.1714 149.002 37.1332 148.692 37.1332H147.883V39.0849H147.281V34.7031H147.3ZM147.902 36.6931H148.495C148.852 36.6931 149.492 36.6931 149.492 35.8512C149.492 35.4207 149.172 35.1528 148.617 35.1528H147.902V36.6931Z" fill="black"/>
</g>
<defs>
<clipPath id="clip0_16740_36902">
<rect width="158" height="40" fill="white"/>
</clipPath>
</defs>
</svg>
