<svg width="16" height="16" viewBox="0 0 16 16" fill="none" xmlns="http://www.w3.org/2000/svg">
<g clip-path="url(#clip0_16740_36937)">
<path d="M8 16C12.4183 16 16 12.4183 16 8C16 3.58172 12.4183 0 8 0C3.58172 0 0 3.58172 0 8C0 12.4183 3.58172 16 8 16Z" fill="#F0F0F0"/>
<path d="M16.0024 8C16.0024 3.58175 12.4206 0 8.00237 0C6.43737 0 4.97756 0.449844 3.7445 1.22659L5.49803 1.97162L3.13281 2.97656L5.49803 3.98147L3.13281 4.98634L5.49803 5.99119L3.13281 6.99591L5.49803 8.00056L3.13281 9.00544L5.49803 10.0103L3.13281 11.015L5.49803 12.0198L3.13281 13.0247L5.49803 14.0294L3.74528 14.774C4.97819 15.5504 6.43769 16 8.00237 16C12.4206 16 16.0024 12.4183 16.0024 8Z" fill="#751A46"/>
</g>
<defs>
<clipPath id="clip0_16740_36937">
<rect width="16" height="16" fill="white"/>
</clipPath>
</defs>
</svg>
