<svg width="101" height="100" viewBox="0 0 101 100" fill="none" xmlns="http://www.w3.org/2000/svg">
<g clip-path="url(#clip0_16398_38713)">
<path d="M50.5 100C78.1142 100 100.5 77.6142 100.5 50C100.5 22.3858 78.1142 0 50.5 0C22.8858 0 0.5 22.3858 0.5 50C0.5 77.6142 22.8858 100 50.5 100Z" fill="#16A34A"/>
<path d="M100.145 55.9805C97.873 75.0547 84.8633 90.832 67.332 97.0977L25.3398 55.1055L23.7422 50.3203L24.1992 45.9922L26.8926 43.5977L32.3359 43L35.8164 44.6074L43.9512 52.7363L65.1836 31.5078L70.9355 30.0547L75.6719 31.5078L100.145 55.9805Z" fill="url(#paint0_linear_16398_38713)"/>
<path d="M65.1816 31.5068L43.9492 52.7353L35.8144 44.6006C34.4229 43.2111 32.5368 42.4307 30.5703 42.4307C28.6038 42.4307 26.7177 43.2111 25.3262 44.6006C23.9367 45.9921 23.1563 47.8782 23.1562 49.8447C23.1563 51.8112 23.9367 53.6973 25.3262 55.0888L38.2422 68.0049C38.3808 68.1709 38.5273 68.333 38.6836 68.4892C40.0826 69.8803 41.9753 70.6611 43.9482 70.6611C45.9211 70.6611 47.8138 69.8803 49.2129 68.4892C49.3691 68.333 49.5156 68.1709 49.6543 68.0049L75.6699 41.9931C77.0594 40.6016 77.8398 38.7155 77.8398 36.749C77.8398 34.7825 77.0594 32.8964 75.6699 31.5049C74.2781 30.1156 72.3918 29.3356 70.4254 29.3359C68.4589 29.3363 66.5729 30.1171 65.1816 31.5068Z" fill="white"/>
</g>
<defs>
<linearGradient id="paint0_linear_16398_38713" x1="38.6953" y1="31.4961" x2="89.2051" y2="82.0078" gradientUnits="userSpaceOnUse">
<stop stop-color="#076F2E"/>
<stop offset="1" stop-color="#076F2E" stop-opacity="0"/>
</linearGradient>
<clipPath id="clip0_16398_38713">
<rect width="100" height="100" fill="white" transform="translate(0.5)"/>
</clipPath>
</defs>
</svg>
